<mxfile host="app.diagrams.net" agent="Mozilla/5.0 (Macintosh; Intel Mac OS X 10_15_7) AppleWebKit/605.1.15 (KHTML, like Gecko) Version/17.3.1 Safari/605.1.15" version="26.1.0">
  <diagram name="Page-1" id="Dd2k6ZitIPzUoGSmlqJK">
    <mxGraphModel dx="2120" dy="2193" grid="1" gridSize="10" guides="1" tooltips="1" connect="1" arrows="1" fold="1" page="1" pageScale="1" pageWidth="827" pageHeight="1169" math="0" shadow="0">
      <root>
        <mxCell id="0" />
        <mxCell id="1" parent="0" />
        <mxCell id="v-7nQs_0DuLFS-Alr0XC-5" value="" style="rounded=0;whiteSpace=wrap;html=1;rotation=90;" vertex="1" parent="1">
          <mxGeometry x="1122.5" y="790" width="315" height="60" as="geometry" />
        </mxCell>
        <mxCell id="fZSX2Tx-VuzL_oRfiSZg-1" value="" style="ellipse;whiteSpace=wrap;html=1;aspect=fixed;strokeColor=#4D4D4D;fillColor=#4D4D4D;" parent="1" vertex="1">
          <mxGeometry x="160" y="360" width="40" height="40" as="geometry" />
        </mxCell>
        <mxCell id="fZSX2Tx-VuzL_oRfiSZg-3" value="" style="ellipse;whiteSpace=wrap;html=1;aspect=fixed;strokeColor=#3333FF;fillColor=#3333FF;" parent="1" vertex="1">
          <mxGeometry x="160" y="200" width="40" height="40" as="geometry" />
        </mxCell>
        <mxCell id="fZSX2Tx-VuzL_oRfiSZg-4" value="" style="ellipse;whiteSpace=wrap;html=1;aspect=fixed;strokeColor=#3333FF;fillColor=#3333FF;" parent="1" vertex="1">
          <mxGeometry x="160" y="280" width="40" height="40" as="geometry" />
        </mxCell>
        <mxCell id="fZSX2Tx-VuzL_oRfiSZg-5" value="" style="ellipse;whiteSpace=wrap;html=1;aspect=fixed;strokeColor=#4D4D4D;fillColor=#4D4D4D;" parent="1" vertex="1">
          <mxGeometry x="160" y="440" width="40" height="40" as="geometry" />
        </mxCell>
        <mxCell id="fZSX2Tx-VuzL_oRfiSZg-7" value="" style="ellipse;whiteSpace=wrap;html=1;aspect=fixed;strokeColor=#3333FF;fillColor=#3333FF;" parent="1" vertex="1">
          <mxGeometry x="360" y="320" width="40" height="40" as="geometry" />
        </mxCell>
        <mxCell id="fZSX2Tx-VuzL_oRfiSZg-8" value="" style="ellipse;whiteSpace=wrap;html=1;aspect=fixed;strokeColor=#3333FF;fillColor=#3333FF;" parent="1" vertex="1">
          <mxGeometry x="360" y="240" width="40" height="40" as="geometry" />
        </mxCell>
        <mxCell id="fZSX2Tx-VuzL_oRfiSZg-10" value="" style="ellipse;whiteSpace=wrap;html=1;aspect=fixed;strokeColor=#4D4D4D;fillColor=#4D4D4D;" parent="1" vertex="1">
          <mxGeometry x="360" y="400" width="40" height="40" as="geometry" />
        </mxCell>
        <mxCell id="fZSX2Tx-VuzL_oRfiSZg-11" value="" style="ellipse;whiteSpace=wrap;html=1;aspect=fixed;strokeColor=#CC0000;fillColor=#CC0000;" parent="1" vertex="1">
          <mxGeometry x="560" y="280" width="40" height="40" as="geometry" />
        </mxCell>
        <mxCell id="fZSX2Tx-VuzL_oRfiSZg-12" value="" style="ellipse;whiteSpace=wrap;html=1;aspect=fixed;strokeColor=#CC0000;fillColor=#CC0000;" parent="1" vertex="1">
          <mxGeometry x="560" y="360" width="40" height="40" as="geometry" />
        </mxCell>
        <mxCell id="fZSX2Tx-VuzL_oRfiSZg-13" style="rounded=0;orthogonalLoop=1;jettySize=auto;html=1;exitX=1;exitY=0.5;exitDx=0;exitDy=0;entryX=0;entryY=0.5;entryDx=0;entryDy=0;endArrow=none;startFill=0;" parent="1" source="fZSX2Tx-VuzL_oRfiSZg-3" target="fZSX2Tx-VuzL_oRfiSZg-8" edge="1">
          <mxGeometry relative="1" as="geometry">
            <mxPoint x="210" y="230" as="sourcePoint" />
            <mxPoint x="330" y="190" as="targetPoint" />
          </mxGeometry>
        </mxCell>
        <mxCell id="fZSX2Tx-VuzL_oRfiSZg-14" style="rounded=0;orthogonalLoop=1;jettySize=auto;html=1;exitX=1;exitY=0.5;exitDx=0;exitDy=0;entryX=0;entryY=0.5;entryDx=0;entryDy=0;endArrow=none;startFill=0;" parent="1" source="fZSX2Tx-VuzL_oRfiSZg-3" target="fZSX2Tx-VuzL_oRfiSZg-7" edge="1">
          <mxGeometry relative="1" as="geometry">
            <mxPoint x="210" y="230" as="sourcePoint" />
            <mxPoint x="330" y="270" as="targetPoint" />
          </mxGeometry>
        </mxCell>
        <mxCell id="fZSX2Tx-VuzL_oRfiSZg-17" style="rounded=0;orthogonalLoop=1;jettySize=auto;html=1;exitX=1;exitY=0.5;exitDx=0;exitDy=0;entryX=0;entryY=0.5;entryDx=0;entryDy=0;endArrow=none;startFill=0;" parent="1" source="fZSX2Tx-VuzL_oRfiSZg-3" target="fZSX2Tx-VuzL_oRfiSZg-10" edge="1">
          <mxGeometry relative="1" as="geometry">
            <mxPoint x="230" y="250" as="sourcePoint" />
            <mxPoint x="350" y="370" as="targetPoint" />
          </mxGeometry>
        </mxCell>
        <mxCell id="fZSX2Tx-VuzL_oRfiSZg-18" style="rounded=0;orthogonalLoop=1;jettySize=auto;html=1;exitX=0;exitY=0.5;exitDx=0;exitDy=0;entryX=1;entryY=0.5;entryDx=0;entryDy=0;endArrow=none;startFill=0;" parent="1" source="fZSX2Tx-VuzL_oRfiSZg-8" target="fZSX2Tx-VuzL_oRfiSZg-1" edge="1">
          <mxGeometry relative="1" as="geometry">
            <mxPoint x="240" y="260" as="sourcePoint" />
            <mxPoint x="360" y="380" as="targetPoint" />
          </mxGeometry>
        </mxCell>
        <mxCell id="fZSX2Tx-VuzL_oRfiSZg-20" style="rounded=0;orthogonalLoop=1;jettySize=auto;html=1;exitX=0;exitY=0.5;exitDx=0;exitDy=0;entryX=1;entryY=0.5;entryDx=0;entryDy=0;endArrow=none;startFill=0;" parent="1" source="fZSX2Tx-VuzL_oRfiSZg-8" target="fZSX2Tx-VuzL_oRfiSZg-5" edge="1">
          <mxGeometry relative="1" as="geometry">
            <mxPoint x="330" y="190" as="sourcePoint" />
            <mxPoint x="210" y="470" as="targetPoint" />
          </mxGeometry>
        </mxCell>
        <mxCell id="fZSX2Tx-VuzL_oRfiSZg-22" style="rounded=0;orthogonalLoop=1;jettySize=auto;html=1;exitX=0;exitY=0.5;exitDx=0;exitDy=0;endArrow=none;startFill=0;entryX=1;entryY=0.5;entryDx=0;entryDy=0;" parent="1" source="fZSX2Tx-VuzL_oRfiSZg-7" target="fZSX2Tx-VuzL_oRfiSZg-5" edge="1">
          <mxGeometry relative="1" as="geometry">
            <mxPoint x="340" y="280" as="sourcePoint" />
            <mxPoint x="200" y="460" as="targetPoint" />
          </mxGeometry>
        </mxCell>
        <mxCell id="fZSX2Tx-VuzL_oRfiSZg-23" style="rounded=0;orthogonalLoop=1;jettySize=auto;html=1;exitX=0;exitY=0.5;exitDx=0;exitDy=0;entryX=1;entryY=0.5;entryDx=0;entryDy=0;endArrow=none;startFill=0;" parent="1" source="fZSX2Tx-VuzL_oRfiSZg-7" target="fZSX2Tx-VuzL_oRfiSZg-1" edge="1">
          <mxGeometry relative="1" as="geometry">
            <mxPoint x="330" y="270" as="sourcePoint" />
            <mxPoint x="210" y="390" as="targetPoint" />
          </mxGeometry>
        </mxCell>
        <mxCell id="fZSX2Tx-VuzL_oRfiSZg-25" style="rounded=0;orthogonalLoop=1;jettySize=auto;html=1;exitX=1;exitY=0.5;exitDx=0;exitDy=0;endArrow=none;startFill=0;entryX=0;entryY=0.5;entryDx=0;entryDy=0;" parent="1" source="fZSX2Tx-VuzL_oRfiSZg-4" target="fZSX2Tx-VuzL_oRfiSZg-8" edge="1">
          <mxGeometry relative="1" as="geometry">
            <mxPoint x="210" y="310" as="sourcePoint" />
            <mxPoint x="330" y="190" as="targetPoint" />
          </mxGeometry>
        </mxCell>
        <mxCell id="fZSX2Tx-VuzL_oRfiSZg-26" style="rounded=0;orthogonalLoop=1;jettySize=auto;html=1;exitX=1;exitY=0.5;exitDx=0;exitDy=0;endArrow=none;startFill=0;entryX=0;entryY=0.5;entryDx=0;entryDy=0;" parent="1" source="fZSX2Tx-VuzL_oRfiSZg-4" target="fZSX2Tx-VuzL_oRfiSZg-7" edge="1">
          <mxGeometry relative="1" as="geometry">
            <mxPoint x="210" y="310" as="sourcePoint" />
            <mxPoint x="330" y="270" as="targetPoint" />
          </mxGeometry>
        </mxCell>
        <mxCell id="fZSX2Tx-VuzL_oRfiSZg-27" style="rounded=0;orthogonalLoop=1;jettySize=auto;html=1;exitX=1;exitY=0.5;exitDx=0;exitDy=0;endArrow=none;startFill=0;entryX=0;entryY=0.5;entryDx=0;entryDy=0;" parent="1" source="fZSX2Tx-VuzL_oRfiSZg-4" target="fZSX2Tx-VuzL_oRfiSZg-10" edge="1">
          <mxGeometry relative="1" as="geometry">
            <mxPoint x="210" y="310" as="sourcePoint" />
            <mxPoint x="330" y="350" as="targetPoint" />
          </mxGeometry>
        </mxCell>
        <mxCell id="fZSX2Tx-VuzL_oRfiSZg-29" style="rounded=0;orthogonalLoop=1;jettySize=auto;html=1;endArrow=none;startFill=0;entryX=1;entryY=0.5;entryDx=0;entryDy=0;exitX=0;exitY=0.5;exitDx=0;exitDy=0;" parent="1" source="fZSX2Tx-VuzL_oRfiSZg-10" target="fZSX2Tx-VuzL_oRfiSZg-5" edge="1">
          <mxGeometry relative="1" as="geometry">
            <mxPoint x="330" y="510" as="sourcePoint" />
            <mxPoint x="200" y="460" as="targetPoint" />
          </mxGeometry>
        </mxCell>
        <mxCell id="fZSX2Tx-VuzL_oRfiSZg-30" style="rounded=0;orthogonalLoop=1;jettySize=auto;html=1;exitX=0;exitY=0.5;exitDx=0;exitDy=0;entryX=1;entryY=0.5;entryDx=0;entryDy=0;endArrow=none;startFill=0;" parent="1" source="fZSX2Tx-VuzL_oRfiSZg-10" target="fZSX2Tx-VuzL_oRfiSZg-1" edge="1">
          <mxGeometry relative="1" as="geometry">
            <mxPoint x="330" y="350" as="sourcePoint" />
            <mxPoint x="210" y="390" as="targetPoint" />
          </mxGeometry>
        </mxCell>
        <mxCell id="fZSX2Tx-VuzL_oRfiSZg-34" style="rounded=0;orthogonalLoop=1;jettySize=auto;html=1;exitX=1;exitY=0.5;exitDx=0;exitDy=0;entryX=0;entryY=0.5;entryDx=0;entryDy=0;endArrow=none;startFill=0;" parent="1" source="fZSX2Tx-VuzL_oRfiSZg-8" target="fZSX2Tx-VuzL_oRfiSZg-11" edge="1">
          <mxGeometry relative="1" as="geometry">
            <mxPoint x="410" y="190" as="sourcePoint" />
            <mxPoint x="530" y="390" as="targetPoint" />
          </mxGeometry>
        </mxCell>
        <mxCell id="fZSX2Tx-VuzL_oRfiSZg-35" style="rounded=0;orthogonalLoop=1;jettySize=auto;html=1;exitX=1;exitY=0.5;exitDx=0;exitDy=0;entryX=0;entryY=0.5;entryDx=0;entryDy=0;endArrow=none;startFill=0;" parent="1" source="fZSX2Tx-VuzL_oRfiSZg-8" target="fZSX2Tx-VuzL_oRfiSZg-12" edge="1">
          <mxGeometry relative="1" as="geometry">
            <mxPoint x="410" y="270" as="sourcePoint" />
            <mxPoint x="530" y="310" as="targetPoint" />
          </mxGeometry>
        </mxCell>
        <mxCell id="fZSX2Tx-VuzL_oRfiSZg-36" style="rounded=0;orthogonalLoop=1;jettySize=auto;html=1;exitX=1;exitY=0.5;exitDx=0;exitDy=0;entryX=0;entryY=0.5;entryDx=0;entryDy=0;endArrow=none;startFill=0;" parent="1" source="fZSX2Tx-VuzL_oRfiSZg-7" target="fZSX2Tx-VuzL_oRfiSZg-11" edge="1">
          <mxGeometry relative="1" as="geometry">
            <mxPoint x="410" y="270" as="sourcePoint" />
            <mxPoint x="530" y="390" as="targetPoint" />
          </mxGeometry>
        </mxCell>
        <mxCell id="fZSX2Tx-VuzL_oRfiSZg-37" style="rounded=0;orthogonalLoop=1;jettySize=auto;html=1;exitX=1;exitY=0.5;exitDx=0;exitDy=0;entryX=0;entryY=0.5;entryDx=0;entryDy=0;endArrow=none;startFill=0;" parent="1" source="fZSX2Tx-VuzL_oRfiSZg-10" target="fZSX2Tx-VuzL_oRfiSZg-12" edge="1">
          <mxGeometry relative="1" as="geometry">
            <mxPoint x="410" y="350" as="sourcePoint" />
            <mxPoint x="530" y="310" as="targetPoint" />
          </mxGeometry>
        </mxCell>
        <mxCell id="fZSX2Tx-VuzL_oRfiSZg-38" style="rounded=0;orthogonalLoop=1;jettySize=auto;html=1;exitX=1;exitY=0.5;exitDx=0;exitDy=0;entryX=0;entryY=0.5;entryDx=0;entryDy=0;endArrow=none;startFill=0;" parent="1" source="fZSX2Tx-VuzL_oRfiSZg-10" target="fZSX2Tx-VuzL_oRfiSZg-11" edge="1">
          <mxGeometry relative="1" as="geometry">
            <mxPoint x="410" y="430" as="sourcePoint" />
            <mxPoint x="530" y="390" as="targetPoint" />
          </mxGeometry>
        </mxCell>
        <mxCell id="fZSX2Tx-VuzL_oRfiSZg-39" style="rounded=0;orthogonalLoop=1;jettySize=auto;html=1;exitX=1;exitY=0.5;exitDx=0;exitDy=0;entryX=0;entryY=0.5;entryDx=0;entryDy=0;endArrow=none;startFill=0;" parent="1" source="fZSX2Tx-VuzL_oRfiSZg-7" target="fZSX2Tx-VuzL_oRfiSZg-12" edge="1">
          <mxGeometry relative="1" as="geometry">
            <mxPoint x="410" y="350" as="sourcePoint" />
            <mxPoint x="530" y="310" as="targetPoint" />
          </mxGeometry>
        </mxCell>
        <mxCell id="fZSX2Tx-VuzL_oRfiSZg-42" value="&lt;font style=&quot;font-size: 20px;&quot;&gt;Shared Model 1&lt;/font&gt;" style="rounded=0;whiteSpace=wrap;html=1;rotation=-90;" parent="1" vertex="1">
          <mxGeometry x="-120" y="310" width="320" height="60" as="geometry" />
        </mxCell>
        <mxCell id="fZSX2Tx-VuzL_oRfiSZg-43" value="&lt;font style=&quot;font-size: 20px;&quot;&gt;Party 1&lt;/font&gt;" style="rounded=0;whiteSpace=wrap;html=1;rotation=-90;strokeColor=#D6B656;strokeWidth=2;" parent="1" vertex="1">
          <mxGeometry x="60" y="230" width="115" height="60" as="geometry" />
        </mxCell>
        <mxCell id="fZSX2Tx-VuzL_oRfiSZg-44" value="&lt;font style=&quot;font-size: 20px;&quot;&gt;Party 2&lt;/font&gt;" style="rounded=0;whiteSpace=wrap;html=1;rotation=-90;" parent="1" vertex="1">
          <mxGeometry x="60" y="390" width="115" height="60" as="geometry" />
        </mxCell>
        <mxCell id="fZSX2Tx-VuzL_oRfiSZg-45" value="" style="ellipse;whiteSpace=wrap;html=1;aspect=fixed;strokeColor=#4D4D4D;fillColor=#4D4D4D;" parent="1" vertex="1">
          <mxGeometry x="160" y="800" width="40" height="40" as="geometry" />
        </mxCell>
        <mxCell id="fZSX2Tx-VuzL_oRfiSZg-47" value="" style="ellipse;whiteSpace=wrap;html=1;aspect=fixed;strokeColor=#3333FF;fillColor=#3333FF;" parent="1" vertex="1">
          <mxGeometry x="160" y="640" width="40" height="40" as="geometry" />
        </mxCell>
        <mxCell id="fZSX2Tx-VuzL_oRfiSZg-48" value="" style="ellipse;whiteSpace=wrap;html=1;aspect=fixed;strokeColor=#3333FF;fillColor=#3333FF;" parent="1" vertex="1">
          <mxGeometry x="160" y="720" width="40" height="40" as="geometry" />
        </mxCell>
        <mxCell id="fZSX2Tx-VuzL_oRfiSZg-49" value="" style="ellipse;whiteSpace=wrap;html=1;aspect=fixed;strokeColor=#4D4D4D;fillColor=#4D4D4D;" parent="1" vertex="1">
          <mxGeometry x="160" y="880" width="40" height="40" as="geometry" />
        </mxCell>
        <mxCell id="fZSX2Tx-VuzL_oRfiSZg-51" value="" style="ellipse;whiteSpace=wrap;html=1;aspect=fixed;strokeColor=#3333FF;fillColor=#3333FF;" parent="1" vertex="1">
          <mxGeometry x="360" y="799" width="40" height="40" as="geometry" />
        </mxCell>
        <mxCell id="fZSX2Tx-VuzL_oRfiSZg-52" value="" style="ellipse;whiteSpace=wrap;html=1;aspect=fixed;strokeColor=#3333FF;fillColor=#3333FF;" parent="1" vertex="1">
          <mxGeometry x="360" y="719" width="40" height="40" as="geometry" />
        </mxCell>
        <mxCell id="fZSX2Tx-VuzL_oRfiSZg-54" value="" style="ellipse;whiteSpace=wrap;html=1;aspect=fixed;strokeColor=#4D4D4D;fillColor=#4D4D4D;" parent="1" vertex="1">
          <mxGeometry x="360" y="879" width="40" height="40" as="geometry" />
        </mxCell>
        <mxCell id="fZSX2Tx-VuzL_oRfiSZg-55" value="" style="ellipse;whiteSpace=wrap;html=1;aspect=fixed;strokeColor=#CC0000;fillColor=#CC0000;" parent="1" vertex="1">
          <mxGeometry x="560" y="759" width="40" height="40" as="geometry" />
        </mxCell>
        <mxCell id="fZSX2Tx-VuzL_oRfiSZg-56" value="" style="ellipse;whiteSpace=wrap;html=1;aspect=fixed;strokeColor=#CC0000;fillColor=#CC0000;" parent="1" vertex="1">
          <mxGeometry x="560" y="839" width="40" height="40" as="geometry" />
        </mxCell>
        <mxCell id="fZSX2Tx-VuzL_oRfiSZg-57" style="rounded=0;orthogonalLoop=1;jettySize=auto;html=1;exitX=1;exitY=0.5;exitDx=0;exitDy=0;entryX=0;entryY=0.5;entryDx=0;entryDy=0;endArrow=none;startFill=0;" parent="1" source="fZSX2Tx-VuzL_oRfiSZg-47" target="fZSX2Tx-VuzL_oRfiSZg-52" edge="1">
          <mxGeometry relative="1" as="geometry">
            <mxPoint x="210" y="670" as="sourcePoint" />
            <mxPoint x="330" y="630" as="targetPoint" />
          </mxGeometry>
        </mxCell>
        <mxCell id="fZSX2Tx-VuzL_oRfiSZg-58" style="rounded=0;orthogonalLoop=1;jettySize=auto;html=1;exitX=1;exitY=0.5;exitDx=0;exitDy=0;entryX=0;entryY=0.5;entryDx=0;entryDy=0;endArrow=none;startFill=0;" parent="1" source="fZSX2Tx-VuzL_oRfiSZg-47" target="fZSX2Tx-VuzL_oRfiSZg-51" edge="1">
          <mxGeometry relative="1" as="geometry">
            <mxPoint x="210" y="670" as="sourcePoint" />
            <mxPoint x="330" y="710" as="targetPoint" />
          </mxGeometry>
        </mxCell>
        <mxCell id="fZSX2Tx-VuzL_oRfiSZg-61" style="rounded=0;orthogonalLoop=1;jettySize=auto;html=1;exitX=1;exitY=0.5;exitDx=0;exitDy=0;entryX=0;entryY=0.5;entryDx=0;entryDy=0;endArrow=none;startFill=0;" parent="1" source="fZSX2Tx-VuzL_oRfiSZg-47" target="fZSX2Tx-VuzL_oRfiSZg-54" edge="1">
          <mxGeometry relative="1" as="geometry">
            <mxPoint x="230" y="690" as="sourcePoint" />
            <mxPoint x="350" y="810" as="targetPoint" />
          </mxGeometry>
        </mxCell>
        <mxCell id="fZSX2Tx-VuzL_oRfiSZg-62" style="rounded=0;orthogonalLoop=1;jettySize=auto;html=1;exitX=0;exitY=0.5;exitDx=0;exitDy=0;entryX=1;entryY=0.5;entryDx=0;entryDy=0;endArrow=none;startFill=0;" parent="1" source="fZSX2Tx-VuzL_oRfiSZg-52" target="fZSX2Tx-VuzL_oRfiSZg-45" edge="1">
          <mxGeometry relative="1" as="geometry">
            <mxPoint x="240" y="700" as="sourcePoint" />
            <mxPoint x="360" y="820" as="targetPoint" />
          </mxGeometry>
        </mxCell>
        <mxCell id="fZSX2Tx-VuzL_oRfiSZg-64" style="rounded=0;orthogonalLoop=1;jettySize=auto;html=1;exitX=0;exitY=0.5;exitDx=0;exitDy=0;entryX=1;entryY=0.5;entryDx=0;entryDy=0;endArrow=none;startFill=0;" parent="1" source="fZSX2Tx-VuzL_oRfiSZg-52" target="fZSX2Tx-VuzL_oRfiSZg-49" edge="1">
          <mxGeometry relative="1" as="geometry">
            <mxPoint x="330" y="630" as="sourcePoint" />
            <mxPoint x="210" y="910" as="targetPoint" />
          </mxGeometry>
        </mxCell>
        <mxCell id="fZSX2Tx-VuzL_oRfiSZg-66" style="rounded=0;orthogonalLoop=1;jettySize=auto;html=1;exitX=0;exitY=0.5;exitDx=0;exitDy=0;endArrow=none;startFill=0;entryX=1;entryY=0.5;entryDx=0;entryDy=0;" parent="1" source="fZSX2Tx-VuzL_oRfiSZg-51" target="fZSX2Tx-VuzL_oRfiSZg-49" edge="1">
          <mxGeometry relative="1" as="geometry">
            <mxPoint x="340" y="720" as="sourcePoint" />
            <mxPoint x="200" y="900" as="targetPoint" />
          </mxGeometry>
        </mxCell>
        <mxCell id="fZSX2Tx-VuzL_oRfiSZg-67" style="rounded=0;orthogonalLoop=1;jettySize=auto;html=1;exitX=0;exitY=0.5;exitDx=0;exitDy=0;entryX=1;entryY=0.5;entryDx=0;entryDy=0;endArrow=none;startFill=0;" parent="1" source="fZSX2Tx-VuzL_oRfiSZg-51" target="fZSX2Tx-VuzL_oRfiSZg-45" edge="1">
          <mxGeometry relative="1" as="geometry">
            <mxPoint x="330" y="710" as="sourcePoint" />
            <mxPoint x="210" y="830" as="targetPoint" />
          </mxGeometry>
        </mxCell>
        <mxCell id="fZSX2Tx-VuzL_oRfiSZg-69" style="rounded=0;orthogonalLoop=1;jettySize=auto;html=1;exitX=1;exitY=0.5;exitDx=0;exitDy=0;endArrow=none;startFill=0;entryX=0;entryY=0.5;entryDx=0;entryDy=0;" parent="1" source="fZSX2Tx-VuzL_oRfiSZg-48" target="fZSX2Tx-VuzL_oRfiSZg-52" edge="1">
          <mxGeometry relative="1" as="geometry">
            <mxPoint x="210" y="750" as="sourcePoint" />
            <mxPoint x="330" y="630" as="targetPoint" />
          </mxGeometry>
        </mxCell>
        <mxCell id="fZSX2Tx-VuzL_oRfiSZg-70" style="rounded=0;orthogonalLoop=1;jettySize=auto;html=1;exitX=1;exitY=0.5;exitDx=0;exitDy=0;endArrow=none;startFill=0;entryX=0;entryY=0.5;entryDx=0;entryDy=0;" parent="1" source="fZSX2Tx-VuzL_oRfiSZg-48" target="fZSX2Tx-VuzL_oRfiSZg-51" edge="1">
          <mxGeometry relative="1" as="geometry">
            <mxPoint x="210" y="750" as="sourcePoint" />
            <mxPoint x="330" y="710" as="targetPoint" />
          </mxGeometry>
        </mxCell>
        <mxCell id="fZSX2Tx-VuzL_oRfiSZg-71" style="rounded=0;orthogonalLoop=1;jettySize=auto;html=1;exitX=1;exitY=0.5;exitDx=0;exitDy=0;endArrow=none;startFill=0;entryX=0;entryY=0.5;entryDx=0;entryDy=0;" parent="1" source="fZSX2Tx-VuzL_oRfiSZg-48" target="fZSX2Tx-VuzL_oRfiSZg-54" edge="1">
          <mxGeometry relative="1" as="geometry">
            <mxPoint x="210" y="750" as="sourcePoint" />
            <mxPoint x="330" y="790" as="targetPoint" />
          </mxGeometry>
        </mxCell>
        <mxCell id="fZSX2Tx-VuzL_oRfiSZg-73" style="rounded=0;orthogonalLoop=1;jettySize=auto;html=1;endArrow=none;startFill=0;entryX=1;entryY=0.5;entryDx=0;entryDy=0;exitX=0;exitY=0.5;exitDx=0;exitDy=0;" parent="1" source="fZSX2Tx-VuzL_oRfiSZg-54" target="fZSX2Tx-VuzL_oRfiSZg-49" edge="1">
          <mxGeometry relative="1" as="geometry">
            <mxPoint x="330" y="950" as="sourcePoint" />
            <mxPoint x="200" y="900" as="targetPoint" />
          </mxGeometry>
        </mxCell>
        <mxCell id="fZSX2Tx-VuzL_oRfiSZg-74" style="rounded=0;orthogonalLoop=1;jettySize=auto;html=1;exitX=0;exitY=0.5;exitDx=0;exitDy=0;entryX=1;entryY=0.5;entryDx=0;entryDy=0;endArrow=none;startFill=0;" parent="1" source="fZSX2Tx-VuzL_oRfiSZg-54" target="fZSX2Tx-VuzL_oRfiSZg-45" edge="1">
          <mxGeometry relative="1" as="geometry">
            <mxPoint x="330" y="790" as="sourcePoint" />
            <mxPoint x="210" y="830" as="targetPoint" />
          </mxGeometry>
        </mxCell>
        <mxCell id="fZSX2Tx-VuzL_oRfiSZg-78" style="rounded=0;orthogonalLoop=1;jettySize=auto;html=1;exitX=1;exitY=0.5;exitDx=0;exitDy=0;entryX=0;entryY=0.5;entryDx=0;entryDy=0;endArrow=none;startFill=0;" parent="1" source="fZSX2Tx-VuzL_oRfiSZg-52" target="fZSX2Tx-VuzL_oRfiSZg-55" edge="1">
          <mxGeometry relative="1" as="geometry">
            <mxPoint x="410" y="630" as="sourcePoint" />
            <mxPoint x="530" y="830" as="targetPoint" />
          </mxGeometry>
        </mxCell>
        <mxCell id="fZSX2Tx-VuzL_oRfiSZg-79" style="rounded=0;orthogonalLoop=1;jettySize=auto;html=1;exitX=1;exitY=0.5;exitDx=0;exitDy=0;entryX=0;entryY=0.5;entryDx=0;entryDy=0;endArrow=none;startFill=0;" parent="1" source="fZSX2Tx-VuzL_oRfiSZg-52" target="fZSX2Tx-VuzL_oRfiSZg-56" edge="1">
          <mxGeometry relative="1" as="geometry">
            <mxPoint x="410" y="710" as="sourcePoint" />
            <mxPoint x="530" y="750" as="targetPoint" />
          </mxGeometry>
        </mxCell>
        <mxCell id="fZSX2Tx-VuzL_oRfiSZg-80" style="rounded=0;orthogonalLoop=1;jettySize=auto;html=1;exitX=1;exitY=0.5;exitDx=0;exitDy=0;entryX=0;entryY=0.5;entryDx=0;entryDy=0;endArrow=none;startFill=0;" parent="1" source="fZSX2Tx-VuzL_oRfiSZg-51" target="fZSX2Tx-VuzL_oRfiSZg-55" edge="1">
          <mxGeometry relative="1" as="geometry">
            <mxPoint x="410" y="710" as="sourcePoint" />
            <mxPoint x="530" y="830" as="targetPoint" />
          </mxGeometry>
        </mxCell>
        <mxCell id="fZSX2Tx-VuzL_oRfiSZg-81" style="rounded=0;orthogonalLoop=1;jettySize=auto;html=1;exitX=1;exitY=0.5;exitDx=0;exitDy=0;entryX=0;entryY=0.5;entryDx=0;entryDy=0;endArrow=none;startFill=0;" parent="1" source="fZSX2Tx-VuzL_oRfiSZg-54" target="fZSX2Tx-VuzL_oRfiSZg-56" edge="1">
          <mxGeometry relative="1" as="geometry">
            <mxPoint x="410" y="790" as="sourcePoint" />
            <mxPoint x="530" y="750" as="targetPoint" />
          </mxGeometry>
        </mxCell>
        <mxCell id="fZSX2Tx-VuzL_oRfiSZg-82" style="rounded=0;orthogonalLoop=1;jettySize=auto;html=1;exitX=1;exitY=0.5;exitDx=0;exitDy=0;entryX=0;entryY=0.5;entryDx=0;entryDy=0;endArrow=none;startFill=0;" parent="1" source="fZSX2Tx-VuzL_oRfiSZg-54" target="fZSX2Tx-VuzL_oRfiSZg-55" edge="1">
          <mxGeometry relative="1" as="geometry">
            <mxPoint x="410" y="870" as="sourcePoint" />
            <mxPoint x="530" y="830" as="targetPoint" />
          </mxGeometry>
        </mxCell>
        <mxCell id="fZSX2Tx-VuzL_oRfiSZg-83" style="rounded=0;orthogonalLoop=1;jettySize=auto;html=1;exitX=1;exitY=0.5;exitDx=0;exitDy=0;entryX=0;entryY=0.5;entryDx=0;entryDy=0;endArrow=none;startFill=0;" parent="1" source="fZSX2Tx-VuzL_oRfiSZg-51" target="fZSX2Tx-VuzL_oRfiSZg-56" edge="1">
          <mxGeometry relative="1" as="geometry">
            <mxPoint x="410" y="790" as="sourcePoint" />
            <mxPoint x="530" y="750" as="targetPoint" />
          </mxGeometry>
        </mxCell>
        <mxCell id="fZSX2Tx-VuzL_oRfiSZg-86" value="&lt;font style=&quot;font-size: 20px;&quot;&gt;Shared Model 2&lt;/font&gt;" style="rounded=0;whiteSpace=wrap;html=1;rotation=-90;" parent="1" vertex="1">
          <mxGeometry x="-160" y="790" width="400" height="60" as="geometry" />
        </mxCell>
        <mxCell id="fZSX2Tx-VuzL_oRfiSZg-87" value="&lt;font style=&quot;font-size: 20px;&quot;&gt;Party 1&lt;/font&gt;" style="rounded=0;whiteSpace=wrap;html=1;rotation=-90;" parent="1" vertex="1">
          <mxGeometry x="60" y="670" width="115" height="60" as="geometry" />
        </mxCell>
        <mxCell id="fZSX2Tx-VuzL_oRfiSZg-88" value="&lt;font style=&quot;font-size: 20px;&quot;&gt;Party 3&lt;/font&gt;" style="rounded=0;whiteSpace=wrap;html=1;rotation=-90;" parent="1" vertex="1">
          <mxGeometry x="20" y="870" width="195" height="60" as="geometry" />
        </mxCell>
        <mxCell id="fZSX2Tx-VuzL_oRfiSZg-90" value="" style="ellipse;whiteSpace=wrap;html=1;aspect=fixed;strokeColor=#4D4D4D;fillColor=#4D4D4D;" parent="1" vertex="1">
          <mxGeometry x="160" y="960" width="40" height="40" as="geometry" />
        </mxCell>
        <mxCell id="fZSX2Tx-VuzL_oRfiSZg-92" style="rounded=0;orthogonalLoop=1;jettySize=auto;html=1;endArrow=none;startFill=0;entryX=1;entryY=0.5;entryDx=0;entryDy=0;exitX=0;exitY=0.5;exitDx=0;exitDy=0;" parent="1" source="fZSX2Tx-VuzL_oRfiSZg-52" target="fZSX2Tx-VuzL_oRfiSZg-90" edge="1">
          <mxGeometry relative="1" as="geometry">
            <mxPoint x="330" y="630" as="sourcePoint" />
            <mxPoint x="210" y="990" as="targetPoint" />
          </mxGeometry>
        </mxCell>
        <mxCell id="fZSX2Tx-VuzL_oRfiSZg-93" style="rounded=0;orthogonalLoop=1;jettySize=auto;html=1;endArrow=none;startFill=0;entryX=1;entryY=0.5;entryDx=0;entryDy=0;exitX=0;exitY=0.5;exitDx=0;exitDy=0;" parent="1" source="fZSX2Tx-VuzL_oRfiSZg-51" target="fZSX2Tx-VuzL_oRfiSZg-90" edge="1">
          <mxGeometry relative="1" as="geometry">
            <mxPoint x="330" y="710" as="sourcePoint" />
            <mxPoint x="210" y="990" as="targetPoint" />
          </mxGeometry>
        </mxCell>
        <mxCell id="fZSX2Tx-VuzL_oRfiSZg-94" style="rounded=0;orthogonalLoop=1;jettySize=auto;html=1;endArrow=none;startFill=0;exitX=0;exitY=0.5;exitDx=0;exitDy=0;" parent="1" source="fZSX2Tx-VuzL_oRfiSZg-54" edge="1">
          <mxGeometry relative="1" as="geometry">
            <mxPoint x="330" y="790" as="sourcePoint" />
            <mxPoint x="200" y="980" as="targetPoint" />
          </mxGeometry>
        </mxCell>
        <mxCell id="fZSX2Tx-VuzL_oRfiSZg-103" value="" style="ellipse;whiteSpace=wrap;html=1;aspect=fixed;strokeColor=none;fillColor=#99CCFF;strokeWidth=4;" parent="1" vertex="1">
          <mxGeometry x="1040" y="797" width="40" height="40" as="geometry" />
        </mxCell>
        <mxCell id="fZSX2Tx-VuzL_oRfiSZg-104" value="" style="ellipse;whiteSpace=wrap;html=1;aspect=fixed;strokeColor=none;fillColor=#99CCFF;strokeWidth=4;" parent="1" vertex="1">
          <mxGeometry x="1040" y="877" width="40" height="40" as="geometry" />
        </mxCell>
        <mxCell id="fZSX2Tx-VuzL_oRfiSZg-105" value="" style="ellipse;whiteSpace=wrap;html=1;aspect=fixed;strokeColor=#99CCFF;fillColor=#99CCFF;" parent="1" vertex="1">
          <mxGeometry x="1260" y="877" width="40" height="40" as="geometry" />
        </mxCell>
        <mxCell id="fZSX2Tx-VuzL_oRfiSZg-109" value="" style="ellipse;whiteSpace=wrap;html=1;aspect=fixed;strokeColor=#FF3333;fillColor=#FF3333;" parent="1" vertex="1">
          <mxGeometry x="1500" y="759" width="40" height="40" as="geometry" />
        </mxCell>
        <mxCell id="fZSX2Tx-VuzL_oRfiSZg-110" value="" style="ellipse;whiteSpace=wrap;html=1;aspect=fixed;strokeColor=#FF3333;fillColor=#FF3333;" parent="1" vertex="1">
          <mxGeometry x="1500" y="839" width="40" height="40" as="geometry" />
        </mxCell>
        <mxCell id="fZSX2Tx-VuzL_oRfiSZg-111" style="rounded=0;orthogonalLoop=1;jettySize=auto;html=1;exitX=1;exitY=0.5;exitDx=0;exitDy=0;entryX=0;entryY=0.5;entryDx=0;entryDy=0;endArrow=none;startFill=0;" parent="1" source="fZSX2Tx-VuzL_oRfiSZg-103" target="fZSX2Tx-VuzL_oRfiSZg-105" edge="1">
          <mxGeometry relative="1" as="geometry">
            <mxPoint x="1110" y="871" as="sourcePoint" />
            <mxPoint x="1230" y="1031" as="targetPoint" />
          </mxGeometry>
        </mxCell>
        <mxCell id="fZSX2Tx-VuzL_oRfiSZg-112" style="rounded=0;orthogonalLoop=1;jettySize=auto;html=1;exitX=1;exitY=0.5;exitDx=0;exitDy=0;entryX=0;entryY=0.5;entryDx=0;entryDy=0;endArrow=none;startFill=0;" parent="1" source="fZSX2Tx-VuzL_oRfiSZg-104" target="fZSX2Tx-VuzL_oRfiSZg-105" edge="1">
          <mxGeometry relative="1" as="geometry">
            <mxPoint x="1090" y="827" as="sourcePoint" />
            <mxPoint x="1210" y="751" as="targetPoint" />
          </mxGeometry>
        </mxCell>
        <mxCell id="fZSX2Tx-VuzL_oRfiSZg-113" style="rounded=0;orthogonalLoop=1;jettySize=auto;html=1;exitX=1;exitY=0.5;exitDx=0;exitDy=0;entryX=0;entryY=0.5;entryDx=0;entryDy=0;endArrow=none;startFill=0;" parent="1" source="fZSX2Tx-VuzL_oRfiSZg-103" edge="1">
          <mxGeometry relative="1" as="geometry">
            <mxPoint x="1090" y="907" as="sourcePoint" />
            <mxPoint x="1260" y="857" as="targetPoint" />
          </mxGeometry>
        </mxCell>
        <mxCell id="fZSX2Tx-VuzL_oRfiSZg-114" style="rounded=0;orthogonalLoop=1;jettySize=auto;html=1;exitX=1;exitY=0.5;exitDx=0;exitDy=0;entryX=0;entryY=0.5;entryDx=0;entryDy=0;endArrow=none;startFill=0;" parent="1" source="fZSX2Tx-VuzL_oRfiSZg-104" edge="1">
          <mxGeometry relative="1" as="geometry">
            <mxPoint x="1090" y="827" as="sourcePoint" />
            <mxPoint x="1260" y="857" as="targetPoint" />
          </mxGeometry>
        </mxCell>
        <mxCell id="fZSX2Tx-VuzL_oRfiSZg-119" style="rounded=0;orthogonalLoop=1;jettySize=auto;html=1;exitX=1;exitY=0.5;exitDx=0;exitDy=0;entryX=0;entryY=0.5;entryDx=0;entryDy=0;endArrow=none;startFill=0;" parent="1" source="fZSX2Tx-VuzL_oRfiSZg-105" target="fZSX2Tx-VuzL_oRfiSZg-109" edge="1">
          <mxGeometry relative="1" as="geometry">
            <mxPoint x="1360" y="780" as="sourcePoint" />
            <mxPoint x="1480" y="774" as="targetPoint" />
          </mxGeometry>
        </mxCell>
        <mxCell id="fZSX2Tx-VuzL_oRfiSZg-120" style="rounded=0;orthogonalLoop=1;jettySize=auto;html=1;exitX=1;exitY=0.5;exitDx=0;exitDy=0;entryX=0;entryY=0.5;entryDx=0;entryDy=0;endArrow=none;startFill=0;" parent="1" source="fZSX2Tx-VuzL_oRfiSZg-105" target="fZSX2Tx-VuzL_oRfiSZg-110" edge="1">
          <mxGeometry relative="1" as="geometry">
            <mxPoint x="1310" y="791" as="sourcePoint" />
            <mxPoint x="1430" y="867" as="targetPoint" />
          </mxGeometry>
        </mxCell>
        <mxCell id="fZSX2Tx-VuzL_oRfiSZg-135" value="&lt;font style=&quot;font-size: 28px;&quot;&gt;Inputs&lt;/font&gt;" style="text;html=1;align=center;verticalAlign=middle;whiteSpace=wrap;rounded=0;" parent="1" vertex="1">
          <mxGeometry x="150" y="70" width="60" height="30" as="geometry" />
        </mxCell>
        <mxCell id="fZSX2Tx-VuzL_oRfiSZg-136" value="&lt;font style=&quot;font-size: 28px;&quot;&gt;Hidden Layer&lt;/font&gt;" style="text;html=1;align=center;verticalAlign=middle;whiteSpace=wrap;rounded=0;" parent="1" vertex="1">
          <mxGeometry x="280" y="70" width="200" height="30" as="geometry" />
        </mxCell>
        <mxCell id="fZSX2Tx-VuzL_oRfiSZg-137" value="&lt;font style=&quot;font-size: 28px;&quot;&gt;Outputs&lt;/font&gt;" style="text;html=1;align=center;verticalAlign=middle;whiteSpace=wrap;rounded=0;" parent="1" vertex="1">
          <mxGeometry x="485" y="70" width="190" height="30" as="geometry" />
        </mxCell>
        <mxCell id="fZSX2Tx-VuzL_oRfiSZg-138" value="" style="whiteSpace=wrap;html=1;fillColor=none;strokeColor=#d6b656;strokeWidth=4;" parent="1" vertex="1">
          <mxGeometry x="894" y="440" width="706" height="877" as="geometry" />
        </mxCell>
        <mxCell id="fZSX2Tx-VuzL_oRfiSZg-139" value="&lt;span style=&quot;font-size: 28px;&quot;&gt;Global Model&lt;/span&gt;" style="text;html=1;align=center;verticalAlign=middle;whiteSpace=wrap;rounded=0;" parent="1" vertex="1">
          <mxGeometry x="1410" y="440" width="190" height="30" as="geometry" />
        </mxCell>
        <mxCell id="fZSX2Tx-VuzL_oRfiSZg-149" value="" style="ellipse;whiteSpace=wrap;html=1;aspect=fixed;strokeColor=#4D4D4D;fillColor=#4D4D4D;" parent="1" vertex="1">
          <mxGeometry x="167" y="1456.5" width="40" height="40" as="geometry" />
        </mxCell>
        <mxCell id="fZSX2Tx-VuzL_oRfiSZg-151" value="" style="ellipse;whiteSpace=wrap;html=1;aspect=fixed;strokeColor=#3333FF;fillColor=#3333FF;" parent="1" vertex="1">
          <mxGeometry x="167" y="1296.5" width="40" height="40" as="geometry" />
        </mxCell>
        <mxCell id="fZSX2Tx-VuzL_oRfiSZg-152" value="" style="ellipse;whiteSpace=wrap;html=1;aspect=fixed;strokeColor=#3333FF;fillColor=#3333FF;" parent="1" vertex="1">
          <mxGeometry x="167" y="1376.5" width="40" height="40" as="geometry" />
        </mxCell>
        <mxCell id="fZSX2Tx-VuzL_oRfiSZg-153" value="" style="ellipse;whiteSpace=wrap;html=1;aspect=fixed;strokeColor=#4D4D4D;fillColor=#4D4D4D;" parent="1" vertex="1">
          <mxGeometry x="167" y="1536.5" width="40" height="40" as="geometry" />
        </mxCell>
        <mxCell id="fZSX2Tx-VuzL_oRfiSZg-155" value="" style="ellipse;whiteSpace=wrap;html=1;aspect=fixed;strokeColor=#3333FF;fillColor=#3333FF;" parent="1" vertex="1">
          <mxGeometry x="367" y="1416.5" width="40" height="40" as="geometry" />
        </mxCell>
        <mxCell id="fZSX2Tx-VuzL_oRfiSZg-156" value="" style="ellipse;whiteSpace=wrap;html=1;aspect=fixed;strokeColor=#3333FF;fillColor=#3333FF;" parent="1" vertex="1">
          <mxGeometry x="367" y="1336.5" width="40" height="40" as="geometry" />
        </mxCell>
        <mxCell id="fZSX2Tx-VuzL_oRfiSZg-158" value="" style="ellipse;whiteSpace=wrap;html=1;aspect=fixed;strokeColor=#4D4D4D;fillColor=#4D4D4D;" parent="1" vertex="1">
          <mxGeometry x="367" y="1496.5" width="40" height="40" as="geometry" />
        </mxCell>
        <mxCell id="fZSX2Tx-VuzL_oRfiSZg-159" value="" style="ellipse;whiteSpace=wrap;html=1;aspect=fixed;strokeColor=#CC0000;fillColor=#CC0000;" parent="1" vertex="1">
          <mxGeometry x="567" y="1376.5" width="40" height="40" as="geometry" />
        </mxCell>
        <mxCell id="fZSX2Tx-VuzL_oRfiSZg-160" value="" style="ellipse;whiteSpace=wrap;html=1;aspect=fixed;strokeColor=#CC0000;fillColor=#CC0000;" parent="1" vertex="1">
          <mxGeometry x="567" y="1456.5" width="40" height="40" as="geometry" />
        </mxCell>
        <mxCell id="fZSX2Tx-VuzL_oRfiSZg-161" style="rounded=0;orthogonalLoop=1;jettySize=auto;html=1;exitX=1;exitY=0.5;exitDx=0;exitDy=0;entryX=0;entryY=0.5;entryDx=0;entryDy=0;endArrow=none;startFill=0;" parent="1" source="fZSX2Tx-VuzL_oRfiSZg-151" target="fZSX2Tx-VuzL_oRfiSZg-156" edge="1">
          <mxGeometry relative="1" as="geometry">
            <mxPoint x="217" y="1326.5" as="sourcePoint" />
            <mxPoint x="337" y="1286.5" as="targetPoint" />
          </mxGeometry>
        </mxCell>
        <mxCell id="fZSX2Tx-VuzL_oRfiSZg-162" style="rounded=0;orthogonalLoop=1;jettySize=auto;html=1;exitX=1;exitY=0.5;exitDx=0;exitDy=0;entryX=0;entryY=0.5;entryDx=0;entryDy=0;endArrow=none;startFill=0;" parent="1" source="fZSX2Tx-VuzL_oRfiSZg-151" target="fZSX2Tx-VuzL_oRfiSZg-155" edge="1">
          <mxGeometry relative="1" as="geometry">
            <mxPoint x="217" y="1326.5" as="sourcePoint" />
            <mxPoint x="337" y="1366.5" as="targetPoint" />
          </mxGeometry>
        </mxCell>
        <mxCell id="fZSX2Tx-VuzL_oRfiSZg-165" style="rounded=0;orthogonalLoop=1;jettySize=auto;html=1;exitX=1;exitY=0.5;exitDx=0;exitDy=0;entryX=0;entryY=0.5;entryDx=0;entryDy=0;endArrow=none;startFill=0;" parent="1" source="fZSX2Tx-VuzL_oRfiSZg-151" target="fZSX2Tx-VuzL_oRfiSZg-158" edge="1">
          <mxGeometry relative="1" as="geometry">
            <mxPoint x="237" y="1346.5" as="sourcePoint" />
            <mxPoint x="357" y="1466.5" as="targetPoint" />
          </mxGeometry>
        </mxCell>
        <mxCell id="fZSX2Tx-VuzL_oRfiSZg-166" style="rounded=0;orthogonalLoop=1;jettySize=auto;html=1;exitX=0;exitY=0.5;exitDx=0;exitDy=0;entryX=1;entryY=0.5;entryDx=0;entryDy=0;endArrow=none;startFill=0;" parent="1" source="fZSX2Tx-VuzL_oRfiSZg-156" target="fZSX2Tx-VuzL_oRfiSZg-149" edge="1">
          <mxGeometry relative="1" as="geometry">
            <mxPoint x="247" y="1356.5" as="sourcePoint" />
            <mxPoint x="367" y="1476.5" as="targetPoint" />
          </mxGeometry>
        </mxCell>
        <mxCell id="fZSX2Tx-VuzL_oRfiSZg-168" style="rounded=0;orthogonalLoop=1;jettySize=auto;html=1;exitX=0;exitY=0.5;exitDx=0;exitDy=0;entryX=1;entryY=0.5;entryDx=0;entryDy=0;endArrow=none;startFill=0;" parent="1" source="fZSX2Tx-VuzL_oRfiSZg-156" target="fZSX2Tx-VuzL_oRfiSZg-153" edge="1">
          <mxGeometry relative="1" as="geometry">
            <mxPoint x="337" y="1286.5" as="sourcePoint" />
            <mxPoint x="217" y="1566.5" as="targetPoint" />
          </mxGeometry>
        </mxCell>
        <mxCell id="fZSX2Tx-VuzL_oRfiSZg-170" style="rounded=0;orthogonalLoop=1;jettySize=auto;html=1;exitX=0;exitY=0.5;exitDx=0;exitDy=0;endArrow=none;startFill=0;entryX=1;entryY=0.5;entryDx=0;entryDy=0;" parent="1" source="fZSX2Tx-VuzL_oRfiSZg-155" target="fZSX2Tx-VuzL_oRfiSZg-153" edge="1">
          <mxGeometry relative="1" as="geometry">
            <mxPoint x="347" y="1376.5" as="sourcePoint" />
            <mxPoint x="207" y="1556.5" as="targetPoint" />
          </mxGeometry>
        </mxCell>
        <mxCell id="fZSX2Tx-VuzL_oRfiSZg-171" style="rounded=0;orthogonalLoop=1;jettySize=auto;html=1;exitX=0;exitY=0.5;exitDx=0;exitDy=0;entryX=1;entryY=0.5;entryDx=0;entryDy=0;endArrow=none;startFill=0;" parent="1" source="fZSX2Tx-VuzL_oRfiSZg-155" target="fZSX2Tx-VuzL_oRfiSZg-149" edge="1">
          <mxGeometry relative="1" as="geometry">
            <mxPoint x="337" y="1366.5" as="sourcePoint" />
            <mxPoint x="217" y="1486.5" as="targetPoint" />
          </mxGeometry>
        </mxCell>
        <mxCell id="fZSX2Tx-VuzL_oRfiSZg-173" style="rounded=0;orthogonalLoop=1;jettySize=auto;html=1;exitX=1;exitY=0.5;exitDx=0;exitDy=0;endArrow=none;startFill=0;entryX=0;entryY=0.5;entryDx=0;entryDy=0;" parent="1" source="fZSX2Tx-VuzL_oRfiSZg-152" target="fZSX2Tx-VuzL_oRfiSZg-156" edge="1">
          <mxGeometry relative="1" as="geometry">
            <mxPoint x="217" y="1406.5" as="sourcePoint" />
            <mxPoint x="337" y="1286.5" as="targetPoint" />
          </mxGeometry>
        </mxCell>
        <mxCell id="fZSX2Tx-VuzL_oRfiSZg-174" style="rounded=0;orthogonalLoop=1;jettySize=auto;html=1;exitX=1;exitY=0.5;exitDx=0;exitDy=0;endArrow=none;startFill=0;entryX=0;entryY=0.5;entryDx=0;entryDy=0;" parent="1" source="fZSX2Tx-VuzL_oRfiSZg-152" target="fZSX2Tx-VuzL_oRfiSZg-155" edge="1">
          <mxGeometry relative="1" as="geometry">
            <mxPoint x="217" y="1406.5" as="sourcePoint" />
            <mxPoint x="337" y="1366.5" as="targetPoint" />
          </mxGeometry>
        </mxCell>
        <mxCell id="fZSX2Tx-VuzL_oRfiSZg-175" style="rounded=0;orthogonalLoop=1;jettySize=auto;html=1;exitX=1;exitY=0.5;exitDx=0;exitDy=0;endArrow=none;startFill=0;entryX=0;entryY=0.5;entryDx=0;entryDy=0;" parent="1" source="fZSX2Tx-VuzL_oRfiSZg-152" target="fZSX2Tx-VuzL_oRfiSZg-158" edge="1">
          <mxGeometry relative="1" as="geometry">
            <mxPoint x="217" y="1406.5" as="sourcePoint" />
            <mxPoint x="337" y="1446.5" as="targetPoint" />
          </mxGeometry>
        </mxCell>
        <mxCell id="fZSX2Tx-VuzL_oRfiSZg-177" style="rounded=0;orthogonalLoop=1;jettySize=auto;html=1;endArrow=none;startFill=0;entryX=1;entryY=0.5;entryDx=0;entryDy=0;exitX=0;exitY=0.5;exitDx=0;exitDy=0;" parent="1" source="fZSX2Tx-VuzL_oRfiSZg-158" target="fZSX2Tx-VuzL_oRfiSZg-153" edge="1">
          <mxGeometry relative="1" as="geometry">
            <mxPoint x="337" y="1606.5" as="sourcePoint" />
            <mxPoint x="207" y="1556.5" as="targetPoint" />
          </mxGeometry>
        </mxCell>
        <mxCell id="fZSX2Tx-VuzL_oRfiSZg-178" style="rounded=0;orthogonalLoop=1;jettySize=auto;html=1;exitX=0;exitY=0.5;exitDx=0;exitDy=0;entryX=1;entryY=0.5;entryDx=0;entryDy=0;endArrow=none;startFill=0;" parent="1" source="fZSX2Tx-VuzL_oRfiSZg-158" target="fZSX2Tx-VuzL_oRfiSZg-149" edge="1">
          <mxGeometry relative="1" as="geometry">
            <mxPoint x="337" y="1446.5" as="sourcePoint" />
            <mxPoint x="217" y="1486.5" as="targetPoint" />
          </mxGeometry>
        </mxCell>
        <mxCell id="fZSX2Tx-VuzL_oRfiSZg-182" style="rounded=0;orthogonalLoop=1;jettySize=auto;html=1;exitX=1;exitY=0.5;exitDx=0;exitDy=0;entryX=0;entryY=0.5;entryDx=0;entryDy=0;endArrow=none;startFill=0;" parent="1" source="fZSX2Tx-VuzL_oRfiSZg-156" target="fZSX2Tx-VuzL_oRfiSZg-159" edge="1">
          <mxGeometry relative="1" as="geometry">
            <mxPoint x="417" y="1247.5" as="sourcePoint" />
            <mxPoint x="537" y="1447.5" as="targetPoint" />
          </mxGeometry>
        </mxCell>
        <mxCell id="fZSX2Tx-VuzL_oRfiSZg-183" style="rounded=0;orthogonalLoop=1;jettySize=auto;html=1;exitX=1;exitY=0.5;exitDx=0;exitDy=0;entryX=0;entryY=0.5;entryDx=0;entryDy=0;endArrow=none;startFill=0;" parent="1" source="fZSX2Tx-VuzL_oRfiSZg-156" target="fZSX2Tx-VuzL_oRfiSZg-160" edge="1">
          <mxGeometry relative="1" as="geometry">
            <mxPoint x="417" y="1327.5" as="sourcePoint" />
            <mxPoint x="537" y="1367.5" as="targetPoint" />
          </mxGeometry>
        </mxCell>
        <mxCell id="fZSX2Tx-VuzL_oRfiSZg-184" style="rounded=0;orthogonalLoop=1;jettySize=auto;html=1;exitX=1;exitY=0.5;exitDx=0;exitDy=0;entryX=0;entryY=0.5;entryDx=0;entryDy=0;endArrow=none;startFill=0;" parent="1" source="fZSX2Tx-VuzL_oRfiSZg-155" target="fZSX2Tx-VuzL_oRfiSZg-159" edge="1">
          <mxGeometry relative="1" as="geometry">
            <mxPoint x="417" y="1327.5" as="sourcePoint" />
            <mxPoint x="537" y="1447.5" as="targetPoint" />
          </mxGeometry>
        </mxCell>
        <mxCell id="fZSX2Tx-VuzL_oRfiSZg-185" style="rounded=0;orthogonalLoop=1;jettySize=auto;html=1;exitX=1;exitY=0.5;exitDx=0;exitDy=0;entryX=0;entryY=0.5;entryDx=0;entryDy=0;endArrow=none;startFill=0;" parent="1" source="fZSX2Tx-VuzL_oRfiSZg-158" target="fZSX2Tx-VuzL_oRfiSZg-160" edge="1">
          <mxGeometry relative="1" as="geometry">
            <mxPoint x="417" y="1407.5" as="sourcePoint" />
            <mxPoint x="537" y="1367.5" as="targetPoint" />
          </mxGeometry>
        </mxCell>
        <mxCell id="fZSX2Tx-VuzL_oRfiSZg-186" style="rounded=0;orthogonalLoop=1;jettySize=auto;html=1;exitX=1;exitY=0.5;exitDx=0;exitDy=0;entryX=0;entryY=0.5;entryDx=0;entryDy=0;endArrow=none;startFill=0;" parent="1" source="fZSX2Tx-VuzL_oRfiSZg-158" target="fZSX2Tx-VuzL_oRfiSZg-159" edge="1">
          <mxGeometry relative="1" as="geometry">
            <mxPoint x="417" y="1487.5" as="sourcePoint" />
            <mxPoint x="537" y="1447.5" as="targetPoint" />
          </mxGeometry>
        </mxCell>
        <mxCell id="fZSX2Tx-VuzL_oRfiSZg-187" style="rounded=0;orthogonalLoop=1;jettySize=auto;html=1;exitX=1;exitY=0.5;exitDx=0;exitDy=0;entryX=0;entryY=0.5;entryDx=0;entryDy=0;endArrow=none;startFill=0;" parent="1" source="fZSX2Tx-VuzL_oRfiSZg-155" target="fZSX2Tx-VuzL_oRfiSZg-160" edge="1">
          <mxGeometry relative="1" as="geometry">
            <mxPoint x="417" y="1407.5" as="sourcePoint" />
            <mxPoint x="537" y="1367.5" as="targetPoint" />
          </mxGeometry>
        </mxCell>
        <mxCell id="fZSX2Tx-VuzL_oRfiSZg-190" value="&lt;font style=&quot;font-size: 18px;&quot;&gt;Shared Model &lt;i&gt;N-1&lt;/i&gt;&lt;/font&gt;" style="rounded=0;whiteSpace=wrap;html=1;rotation=-90;" parent="1" vertex="1">
          <mxGeometry x="-113" y="1406.5" width="320" height="60" as="geometry" />
        </mxCell>
        <mxCell id="fZSX2Tx-VuzL_oRfiSZg-191" value="&lt;font style=&quot;font-size: 20px;&quot;&gt;Party 1&lt;/font&gt;" style="rounded=0;whiteSpace=wrap;html=1;rotation=-90;" parent="1" vertex="1">
          <mxGeometry x="67" y="1326.5" width="115" height="60" as="geometry" />
        </mxCell>
        <mxCell id="akp7HB05Ez-BgF-G3p8F-1" value="" style="ellipse;whiteSpace=wrap;html=1;aspect=fixed;strokeColor=#99CCFF;fillColor=#99CCFF;" parent="1" vertex="1">
          <mxGeometry x="1040" y="637" width="40" height="40" as="geometry" />
        </mxCell>
        <mxCell id="akp7HB05Ez-BgF-G3p8F-2" value="" style="ellipse;whiteSpace=wrap;html=1;aspect=fixed;strokeColor=none;fillColor=#99CCFF;strokeWidth=4;" parent="1" vertex="1">
          <mxGeometry x="1040" y="717" width="40" height="40" as="geometry" />
        </mxCell>
        <mxCell id="akp7HB05Ez-BgF-G3p8F-3" value="" style="ellipse;whiteSpace=wrap;html=1;aspect=fixed;strokeColor=#99CCFF;fillColor=#99CCFF;" parent="1" vertex="1">
          <mxGeometry x="1040" y="1240" width="40" height="40" as="geometry" />
        </mxCell>
        <mxCell id="akp7HB05Ez-BgF-G3p8F-5" value="" style="ellipse;whiteSpace=wrap;html=1;aspect=fixed;strokeColor=#99CCFF;fillColor=#99CCFF;" parent="1" vertex="1">
          <mxGeometry x="1040" y="1080" width="40" height="40" as="geometry" />
        </mxCell>
        <mxCell id="akp7HB05Ez-BgF-G3p8F-6" value="" style="ellipse;whiteSpace=wrap;html=1;aspect=fixed;strokeColor=#99CCFF;fillColor=#99CCFF;" parent="1" vertex="1">
          <mxGeometry x="1040" y="1160" width="40" height="40" as="geometry" />
        </mxCell>
        <mxCell id="akp7HB05Ez-BgF-G3p8F-7" value="" style="ellipse;whiteSpace=wrap;html=1;aspect=fixed;strokeColor=#99CCFF;fillColor=#99CCFF;" parent="1" vertex="1">
          <mxGeometry x="1040" y="478" width="40" height="40" as="geometry" />
        </mxCell>
        <mxCell id="akp7HB05Ez-BgF-G3p8F-8" value="" style="ellipse;whiteSpace=wrap;html=1;aspect=fixed;strokeColor=#99CCFF;fillColor=#99CCFF;" parent="1" vertex="1">
          <mxGeometry x="1040" y="558" width="40" height="40" as="geometry" />
        </mxCell>
        <mxCell id="akp7HB05Ez-BgF-G3p8F-9" value="&lt;font style=&quot;font-size: 20px;&quot;&gt;Party N&lt;/font&gt;" style="rounded=0;whiteSpace=wrap;html=1;rotation=-90;" parent="1" vertex="1">
          <mxGeometry x="67" y="1486.5" width="115" height="60" as="geometry" />
        </mxCell>
        <mxCell id="akp7HB05Ez-BgF-G3p8F-18" value="" style="shape=cylinder3;whiteSpace=wrap;html=1;boundedLbl=1;backgroundOutline=1;size=15;" parent="1" vertex="1">
          <mxGeometry x="760" y="300" width="60" height="80" as="geometry" />
        </mxCell>
        <mxCell id="akp7HB05Ez-BgF-G3p8F-24" value="" style="shape=cylinder3;whiteSpace=wrap;html=1;boundedLbl=1;backgroundOutline=1;size=15;" parent="1" vertex="1">
          <mxGeometry x="760" y="779" width="60" height="80" as="geometry" />
        </mxCell>
        <mxCell id="akp7HB05Ez-BgF-G3p8F-31" value="" style="shape=cylinder3;whiteSpace=wrap;html=1;boundedLbl=1;backgroundOutline=1;size=15;" parent="1" vertex="1">
          <mxGeometry x="767" y="1396.5" width="60" height="80" as="geometry" />
        </mxCell>
        <mxCell id="akp7HB05Ez-BgF-G3p8F-44" value="" style="ellipse;whiteSpace=wrap;html=1;aspect=fixed;strokeColor=#99CCFF;fillColor=#99CCFF;" parent="1" vertex="1">
          <mxGeometry x="1260" y="717" width="40" height="40" as="geometry" />
        </mxCell>
        <mxCell id="akp7HB05Ez-BgF-G3p8F-45" value="" style="ellipse;whiteSpace=wrap;html=1;aspect=fixed;strokeColor=#99CCFF;fillColor=#99CCFF;" parent="1" vertex="1">
          <mxGeometry x="1260" y="797" width="40" height="40" as="geometry" />
        </mxCell>
        <mxCell id="akp7HB05Ez-BgF-G3p8F-46" style="rounded=0;orthogonalLoop=1;jettySize=auto;html=1;endArrow=none;startFill=0;entryX=1;entryY=0.5;entryDx=0;entryDy=0;exitX=0;exitY=0.5;exitDx=0;exitDy=0;" parent="1" source="akp7HB05Ez-BgF-G3p8F-44" target="akp7HB05Ez-BgF-G3p8F-7" edge="1">
          <mxGeometry relative="1" as="geometry">
            <mxPoint x="1490" y="575" as="sourcePoint" />
            <mxPoint x="1270" y="421" as="targetPoint" />
          </mxGeometry>
        </mxCell>
        <mxCell id="akp7HB05Ez-BgF-G3p8F-47" style="rounded=0;orthogonalLoop=1;jettySize=auto;html=1;endArrow=none;startFill=0;entryX=1;entryY=0.5;entryDx=0;entryDy=0;exitX=0;exitY=0.5;exitDx=0;exitDy=0;" parent="1" source="akp7HB05Ez-BgF-G3p8F-44" target="akp7HB05Ez-BgF-G3p8F-8" edge="1">
          <mxGeometry relative="1" as="geometry">
            <mxPoint x="1210" y="587" as="sourcePoint" />
            <mxPoint x="1090" y="508" as="targetPoint" />
          </mxGeometry>
        </mxCell>
        <mxCell id="akp7HB05Ez-BgF-G3p8F-48" style="rounded=0;orthogonalLoop=1;jettySize=auto;html=1;endArrow=none;startFill=0;entryX=1;entryY=0.5;entryDx=0;entryDy=0;exitX=0;exitY=0.5;exitDx=0;exitDy=0;" parent="1" source="akp7HB05Ez-BgF-G3p8F-44" target="akp7HB05Ez-BgF-G3p8F-1" edge="1">
          <mxGeometry relative="1" as="geometry">
            <mxPoint x="1210" y="587" as="sourcePoint" />
            <mxPoint x="1090" y="588" as="targetPoint" />
          </mxGeometry>
        </mxCell>
        <mxCell id="akp7HB05Ez-BgF-G3p8F-49" style="rounded=0;orthogonalLoop=1;jettySize=auto;html=1;endArrow=none;startFill=0;entryX=1;entryY=0.5;entryDx=0;entryDy=0;exitX=0;exitY=0.5;exitDx=0;exitDy=0;" parent="1" source="akp7HB05Ez-BgF-G3p8F-44" target="akp7HB05Ez-BgF-G3p8F-2" edge="1">
          <mxGeometry relative="1" as="geometry">
            <mxPoint x="1210" y="587" as="sourcePoint" />
            <mxPoint x="1090" y="667" as="targetPoint" />
          </mxGeometry>
        </mxCell>
        <mxCell id="akp7HB05Ez-BgF-G3p8F-50" style="rounded=0;orthogonalLoop=1;jettySize=auto;html=1;endArrow=none;startFill=0;entryX=1;entryY=0.5;entryDx=0;entryDy=0;exitX=0;exitY=0.5;exitDx=0;exitDy=0;" parent="1" source="akp7HB05Ez-BgF-G3p8F-44" target="fZSX2Tx-VuzL_oRfiSZg-103" edge="1">
          <mxGeometry relative="1" as="geometry">
            <mxPoint x="1210" y="587" as="sourcePoint" />
            <mxPoint x="1090" y="747" as="targetPoint" />
          </mxGeometry>
        </mxCell>
        <mxCell id="akp7HB05Ez-BgF-G3p8F-51" style="rounded=0;orthogonalLoop=1;jettySize=auto;html=1;endArrow=none;startFill=0;entryX=1;entryY=0.5;entryDx=0;entryDy=0;exitX=0;exitY=0.5;exitDx=0;exitDy=0;" parent="1" source="akp7HB05Ez-BgF-G3p8F-44" target="fZSX2Tx-VuzL_oRfiSZg-104" edge="1">
          <mxGeometry relative="1" as="geometry">
            <mxPoint x="1210" y="587" as="sourcePoint" />
            <mxPoint x="1090" y="827" as="targetPoint" />
          </mxGeometry>
        </mxCell>
        <mxCell id="akp7HB05Ez-BgF-G3p8F-52" style="rounded=0;orthogonalLoop=1;jettySize=auto;html=1;endArrow=none;startFill=0;entryX=1;entryY=0.5;entryDx=0;entryDy=0;exitX=0;exitY=0.5;exitDx=0;exitDy=0;" parent="1" source="akp7HB05Ez-BgF-G3p8F-44" target="akp7HB05Ez-BgF-G3p8F-5" edge="1">
          <mxGeometry relative="1" as="geometry">
            <mxPoint x="1220" y="597" as="sourcePoint" />
            <mxPoint x="1100" y="837" as="targetPoint" />
          </mxGeometry>
        </mxCell>
        <mxCell id="akp7HB05Ez-BgF-G3p8F-53" style="rounded=0;orthogonalLoop=1;jettySize=auto;html=1;endArrow=none;startFill=0;entryX=1;entryY=0.5;entryDx=0;entryDy=0;exitX=0;exitY=0.5;exitDx=0;exitDy=0;" parent="1" source="akp7HB05Ez-BgF-G3p8F-44" target="akp7HB05Ez-BgF-G3p8F-6" edge="1">
          <mxGeometry relative="1" as="geometry">
            <mxPoint x="1230" y="607" as="sourcePoint" />
            <mxPoint x="1110" y="847" as="targetPoint" />
          </mxGeometry>
        </mxCell>
        <mxCell id="akp7HB05Ez-BgF-G3p8F-54" style="rounded=0;orthogonalLoop=1;jettySize=auto;html=1;endArrow=none;startFill=0;entryX=1;entryY=0.5;entryDx=0;entryDy=0;exitX=0;exitY=0.5;exitDx=0;exitDy=0;" parent="1" source="akp7HB05Ez-BgF-G3p8F-44" target="akp7HB05Ez-BgF-G3p8F-3" edge="1">
          <mxGeometry relative="1" as="geometry">
            <mxPoint x="1240" y="617" as="sourcePoint" />
            <mxPoint x="1120" y="857" as="targetPoint" />
          </mxGeometry>
        </mxCell>
        <mxCell id="akp7HB05Ez-BgF-G3p8F-55" style="rounded=0;orthogonalLoop=1;jettySize=auto;html=1;endArrow=none;startFill=0;entryX=1;entryY=0.5;entryDx=0;entryDy=0;exitX=0;exitY=0.5;exitDx=0;exitDy=0;" parent="1" source="akp7HB05Ez-BgF-G3p8F-45" target="akp7HB05Ez-BgF-G3p8F-7" edge="1">
          <mxGeometry relative="1" as="geometry">
            <mxPoint x="1250" y="627" as="sourcePoint" />
            <mxPoint x="1130" y="867" as="targetPoint" />
          </mxGeometry>
        </mxCell>
        <mxCell id="akp7HB05Ez-BgF-G3p8F-56" style="rounded=0;orthogonalLoop=1;jettySize=auto;html=1;endArrow=none;startFill=0;entryX=1;entryY=0.5;entryDx=0;entryDy=0;exitX=0;exitY=0.5;exitDx=0;exitDy=0;" parent="1" source="fZSX2Tx-VuzL_oRfiSZg-105" target="akp7HB05Ez-BgF-G3p8F-7" edge="1">
          <mxGeometry relative="1" as="geometry">
            <mxPoint x="1270" y="667" as="sourcePoint" />
            <mxPoint x="1090" y="508" as="targetPoint" />
          </mxGeometry>
        </mxCell>
        <mxCell id="akp7HB05Ez-BgF-G3p8F-57" style="rounded=0;orthogonalLoop=1;jettySize=auto;html=1;endArrow=none;startFill=0;entryX=1;entryY=0.5;entryDx=0;entryDy=0;exitX=0;exitY=0.5;exitDx=0;exitDy=0;" parent="1" target="akp7HB05Ez-BgF-G3p8F-7" edge="1">
          <mxGeometry relative="1" as="geometry">
            <mxPoint x="1260" y="857" as="sourcePoint" />
            <mxPoint x="1090" y="508" as="targetPoint" />
          </mxGeometry>
        </mxCell>
        <mxCell id="akp7HB05Ez-BgF-G3p8F-61" style="rounded=0;orthogonalLoop=1;jettySize=auto;html=1;endArrow=none;startFill=0;entryX=1;entryY=0.5;entryDx=0;entryDy=0;exitX=0;exitY=0.5;exitDx=0;exitDy=0;" parent="1" source="akp7HB05Ez-BgF-G3p8F-45" target="akp7HB05Ez-BgF-G3p8F-8" edge="1">
          <mxGeometry relative="1" as="geometry">
            <mxPoint x="1270" y="987" as="sourcePoint" />
            <mxPoint x="1090" y="508" as="targetPoint" />
          </mxGeometry>
        </mxCell>
        <mxCell id="akp7HB05Ez-BgF-G3p8F-62" style="rounded=0;orthogonalLoop=1;jettySize=auto;html=1;endArrow=none;startFill=0;entryX=1;entryY=0.5;entryDx=0;entryDy=0;exitX=0;exitY=0.5;exitDx=0;exitDy=0;" parent="1" source="fZSX2Tx-VuzL_oRfiSZg-105" target="akp7HB05Ez-BgF-G3p8F-1" edge="1">
          <mxGeometry relative="1" as="geometry">
            <mxPoint x="1270" y="667" as="sourcePoint" />
            <mxPoint x="1090" y="588" as="targetPoint" />
          </mxGeometry>
        </mxCell>
        <mxCell id="akp7HB05Ez-BgF-G3p8F-63" style="rounded=0;orthogonalLoop=1;jettySize=auto;html=1;endArrow=none;startFill=0;entryX=1;entryY=0.5;entryDx=0;entryDy=0;exitX=0;exitY=0.5;exitDx=0;exitDy=0;" parent="1" source="fZSX2Tx-VuzL_oRfiSZg-105" target="akp7HB05Ez-BgF-G3p8F-2" edge="1">
          <mxGeometry relative="1" as="geometry">
            <mxPoint x="1270" y="747" as="sourcePoint" />
            <mxPoint x="1090" y="667" as="targetPoint" />
          </mxGeometry>
        </mxCell>
        <mxCell id="akp7HB05Ez-BgF-G3p8F-65" style="rounded=0;orthogonalLoop=1;jettySize=auto;html=1;endArrow=none;startFill=0;entryX=1;entryY=0.5;entryDx=0;entryDy=0;exitX=0;exitY=0.5;exitDx=0;exitDy=0;" parent="1" target="akp7HB05Ez-BgF-G3p8F-2" edge="1">
          <mxGeometry relative="1" as="geometry">
            <mxPoint x="1260" y="857" as="sourcePoint" />
            <mxPoint x="1100" y="757" as="targetPoint" />
          </mxGeometry>
        </mxCell>
        <mxCell id="akp7HB05Ez-BgF-G3p8F-68" style="rounded=0;orthogonalLoop=1;jettySize=auto;html=1;endArrow=none;startFill=0;entryX=1;entryY=0.5;entryDx=0;entryDy=0;exitX=0;exitY=0.5;exitDx=0;exitDy=0;" parent="1" source="akp7HB05Ez-BgF-G3p8F-45" target="fZSX2Tx-VuzL_oRfiSZg-103" edge="1">
          <mxGeometry relative="1" as="geometry">
            <mxPoint x="1270" y="587" as="sourcePoint" />
            <mxPoint x="1090" y="827" as="targetPoint" />
          </mxGeometry>
        </mxCell>
        <mxCell id="akp7HB05Ez-BgF-G3p8F-69" style="rounded=0;orthogonalLoop=1;jettySize=auto;html=1;endArrow=none;startFill=0;entryX=1;entryY=0.5;entryDx=0;entryDy=0;exitX=0;exitY=0.5;exitDx=0;exitDy=0;" parent="1" source="akp7HB05Ez-BgF-G3p8F-45" target="fZSX2Tx-VuzL_oRfiSZg-104" edge="1">
          <mxGeometry relative="1" as="geometry">
            <mxPoint x="1270" y="667" as="sourcePoint" />
            <mxPoint x="1090" y="827" as="targetPoint" />
          </mxGeometry>
        </mxCell>
        <mxCell id="akp7HB05Ez-BgF-G3p8F-70" style="rounded=0;orthogonalLoop=1;jettySize=auto;html=1;exitX=1;exitY=0.5;exitDx=0;exitDy=0;entryX=0;entryY=0.5;entryDx=0;entryDy=0;endArrow=none;startFill=0;" parent="1" source="akp7HB05Ez-BgF-G3p8F-5" target="akp7HB05Ez-BgF-G3p8F-44" edge="1">
          <mxGeometry relative="1" as="geometry">
            <mxPoint x="1090" y="907" as="sourcePoint" />
            <mxPoint x="1270" y="987" as="targetPoint" />
          </mxGeometry>
        </mxCell>
        <mxCell id="akp7HB05Ez-BgF-G3p8F-71" style="rounded=0;orthogonalLoop=1;jettySize=auto;html=1;exitX=1;exitY=0.5;exitDx=0;exitDy=0;entryX=0;entryY=0.5;entryDx=0;entryDy=0;endArrow=none;startFill=0;" parent="1" source="akp7HB05Ez-BgF-G3p8F-5" target="akp7HB05Ez-BgF-G3p8F-45" edge="1">
          <mxGeometry relative="1" as="geometry">
            <mxPoint x="1090" y="987" as="sourcePoint" />
            <mxPoint x="1270" y="587" as="targetPoint" />
          </mxGeometry>
        </mxCell>
        <mxCell id="akp7HB05Ez-BgF-G3p8F-72" style="rounded=0;orthogonalLoop=1;jettySize=auto;html=1;exitX=1;exitY=0.5;exitDx=0;exitDy=0;entryX=0;entryY=0.5;entryDx=0;entryDy=0;endArrow=none;startFill=0;" parent="1" source="akp7HB05Ez-BgF-G3p8F-5" target="fZSX2Tx-VuzL_oRfiSZg-105" edge="1">
          <mxGeometry relative="1" as="geometry">
            <mxPoint x="1090" y="987" as="sourcePoint" />
            <mxPoint x="1270" y="667" as="targetPoint" />
          </mxGeometry>
        </mxCell>
        <mxCell id="akp7HB05Ez-BgF-G3p8F-73" style="rounded=0;orthogonalLoop=1;jettySize=auto;html=1;exitX=1;exitY=0.5;exitDx=0;exitDy=0;entryX=0;entryY=0.5;entryDx=0;entryDy=0;endArrow=none;startFill=0;" parent="1" source="akp7HB05Ez-BgF-G3p8F-5" edge="1">
          <mxGeometry relative="1" as="geometry">
            <mxPoint x="1090" y="987" as="sourcePoint" />
            <mxPoint x="1260" y="857" as="targetPoint" />
          </mxGeometry>
        </mxCell>
        <mxCell id="akp7HB05Ez-BgF-G3p8F-78" style="rounded=0;orthogonalLoop=1;jettySize=auto;html=1;exitX=1;exitY=0.5;exitDx=0;exitDy=0;entryX=0;entryY=0.5;entryDx=0;entryDy=0;endArrow=none;startFill=0;" parent="1" source="akp7HB05Ez-BgF-G3p8F-6" edge="1">
          <mxGeometry relative="1" as="geometry">
            <mxPoint x="1090" y="1067" as="sourcePoint" />
            <mxPoint x="1260" y="857" as="targetPoint" />
          </mxGeometry>
        </mxCell>
        <mxCell id="akp7HB05Ez-BgF-G3p8F-79" style="rounded=0;orthogonalLoop=1;jettySize=auto;html=1;exitX=1;exitY=0.5;exitDx=0;exitDy=0;entryX=0;entryY=0.5;entryDx=0;entryDy=0;endArrow=none;startFill=0;" parent="1" source="akp7HB05Ez-BgF-G3p8F-6" target="fZSX2Tx-VuzL_oRfiSZg-105" edge="1">
          <mxGeometry relative="1" as="geometry">
            <mxPoint x="1090" y="1067" as="sourcePoint" />
            <mxPoint x="1270" y="827" as="targetPoint" />
          </mxGeometry>
        </mxCell>
        <mxCell id="akp7HB05Ez-BgF-G3p8F-80" style="rounded=0;orthogonalLoop=1;jettySize=auto;html=1;exitX=1;exitY=0.5;exitDx=0;exitDy=0;entryX=0;entryY=0.5;entryDx=0;entryDy=0;endArrow=none;startFill=0;" parent="1" source="akp7HB05Ez-BgF-G3p8F-6" target="akp7HB05Ez-BgF-G3p8F-45" edge="1">
          <mxGeometry relative="1" as="geometry">
            <mxPoint x="1090" y="1067" as="sourcePoint" />
            <mxPoint x="1270" y="747" as="targetPoint" />
          </mxGeometry>
        </mxCell>
        <mxCell id="akp7HB05Ez-BgF-G3p8F-81" style="rounded=0;orthogonalLoop=1;jettySize=auto;html=1;exitX=1;exitY=0.5;exitDx=0;exitDy=0;entryX=0;entryY=0.5;entryDx=0;entryDy=0;endArrow=none;startFill=0;" parent="1" source="akp7HB05Ez-BgF-G3p8F-6" target="akp7HB05Ez-BgF-G3p8F-44" edge="1">
          <mxGeometry relative="1" as="geometry">
            <mxPoint x="1090" y="1067" as="sourcePoint" />
            <mxPoint x="1270" y="667" as="targetPoint" />
          </mxGeometry>
        </mxCell>
        <mxCell id="akp7HB05Ez-BgF-G3p8F-82" style="rounded=0;orthogonalLoop=1;jettySize=auto;html=1;endArrow=none;startFill=0;entryX=1;entryY=0.5;entryDx=0;entryDy=0;exitX=0;exitY=0.5;exitDx=0;exitDy=0;" parent="1" source="akp7HB05Ez-BgF-G3p8F-45" target="akp7HB05Ez-BgF-G3p8F-3" edge="1">
          <mxGeometry relative="1" as="geometry">
            <mxPoint x="1270" y="587" as="sourcePoint" />
            <mxPoint x="1090" y="1147" as="targetPoint" />
          </mxGeometry>
        </mxCell>
        <mxCell id="akp7HB05Ez-BgF-G3p8F-83" style="rounded=0;orthogonalLoop=1;jettySize=auto;html=1;endArrow=none;startFill=0;entryX=1;entryY=0.5;entryDx=0;entryDy=0;exitX=0;exitY=0.5;exitDx=0;exitDy=0;" parent="1" source="fZSX2Tx-VuzL_oRfiSZg-105" target="akp7HB05Ez-BgF-G3p8F-3" edge="1">
          <mxGeometry relative="1" as="geometry">
            <mxPoint x="1270" y="667" as="sourcePoint" />
            <mxPoint x="1090" y="1147" as="targetPoint" />
          </mxGeometry>
        </mxCell>
        <mxCell id="akp7HB05Ez-BgF-G3p8F-84" style="rounded=0;orthogonalLoop=1;jettySize=auto;html=1;endArrow=none;startFill=0;entryX=1;entryY=0.5;entryDx=0;entryDy=0;exitX=0;exitY=0.5;exitDx=0;exitDy=0;" parent="1" target="akp7HB05Ez-BgF-G3p8F-3" edge="1">
          <mxGeometry relative="1" as="geometry">
            <mxPoint x="1260" y="857" as="sourcePoint" />
            <mxPoint x="1090" y="1147" as="targetPoint" />
          </mxGeometry>
        </mxCell>
        <mxCell id="akp7HB05Ez-BgF-G3p8F-87" style="rounded=0;orthogonalLoop=1;jettySize=auto;html=1;endArrow=none;startFill=0;entryX=1;entryY=0.5;entryDx=0;entryDy=0;exitX=0;exitY=0.5;exitDx=0;exitDy=0;" parent="1" source="fZSX2Tx-VuzL_oRfiSZg-105" target="akp7HB05Ez-BgF-G3p8F-8" edge="1">
          <mxGeometry relative="1" as="geometry">
            <mxPoint x="1270" y="707" as="sourcePoint" />
            <mxPoint x="1090" y="588" as="targetPoint" />
          </mxGeometry>
        </mxCell>
        <mxCell id="akp7HB05Ez-BgF-G3p8F-88" style="rounded=0;orthogonalLoop=1;jettySize=auto;html=1;endArrow=none;startFill=0;entryX=1;entryY=0.5;entryDx=0;entryDy=0;exitX=0;exitY=0.5;exitDx=0;exitDy=0;" parent="1" target="akp7HB05Ez-BgF-G3p8F-8" edge="1">
          <mxGeometry relative="1" as="geometry">
            <mxPoint x="1260" y="857" as="sourcePoint" />
            <mxPoint x="1090" y="588" as="targetPoint" />
          </mxGeometry>
        </mxCell>
        <mxCell id="akp7HB05Ez-BgF-G3p8F-91" style="rounded=0;orthogonalLoop=1;jettySize=auto;html=1;endArrow=none;startFill=0;entryX=1;entryY=0.5;entryDx=0;entryDy=0;exitX=0;exitY=0.5;exitDx=0;exitDy=0;" parent="1" source="akp7HB05Ez-BgF-G3p8F-45" target="akp7HB05Ez-BgF-G3p8F-1" edge="1">
          <mxGeometry relative="1" as="geometry">
            <mxPoint x="1270" y="627" as="sourcePoint" />
            <mxPoint x="1090" y="667" as="targetPoint" />
          </mxGeometry>
        </mxCell>
        <mxCell id="akp7HB05Ez-BgF-G3p8F-92" style="rounded=0;orthogonalLoop=1;jettySize=auto;html=1;endArrow=none;startFill=0;entryX=1;entryY=0.5;entryDx=0;entryDy=0;exitX=0;exitY=0.5;exitDx=0;exitDy=0;" parent="1" target="akp7HB05Ez-BgF-G3p8F-1" edge="1">
          <mxGeometry relative="1" as="geometry">
            <mxPoint x="1260" y="857" as="sourcePoint" />
            <mxPoint x="1090" y="667" as="targetPoint" />
          </mxGeometry>
        </mxCell>
        <mxCell id="akp7HB05Ez-BgF-G3p8F-95" style="rounded=0;orthogonalLoop=1;jettySize=auto;html=1;exitX=1;exitY=0.5;exitDx=0;exitDy=0;entryX=0;entryY=0.5;entryDx=0;entryDy=0;endArrow=none;startFill=0;" parent="1" source="akp7HB05Ez-BgF-G3p8F-44" target="fZSX2Tx-VuzL_oRfiSZg-109" edge="1">
          <mxGeometry relative="1" as="geometry">
            <mxPoint x="1310" y="787" as="sourcePoint" />
            <mxPoint x="1430" y="867" as="targetPoint" />
          </mxGeometry>
        </mxCell>
        <mxCell id="akp7HB05Ez-BgF-G3p8F-96" style="rounded=0;orthogonalLoop=1;jettySize=auto;html=1;exitX=1;exitY=0.5;exitDx=0;exitDy=0;entryX=0;entryY=0.5;entryDx=0;entryDy=0;endArrow=none;startFill=0;" parent="1" source="akp7HB05Ez-BgF-G3p8F-44" target="fZSX2Tx-VuzL_oRfiSZg-110" edge="1">
          <mxGeometry relative="1" as="geometry">
            <mxPoint x="1310" y="627" as="sourcePoint" />
            <mxPoint x="1430" y="867" as="targetPoint" />
          </mxGeometry>
        </mxCell>
        <mxCell id="akp7HB05Ez-BgF-G3p8F-97" style="rounded=0;orthogonalLoop=1;jettySize=auto;html=1;exitX=1;exitY=0.5;exitDx=0;exitDy=0;entryX=0;entryY=0.5;entryDx=0;entryDy=0;endArrow=none;startFill=0;" parent="1" source="akp7HB05Ez-BgF-G3p8F-45" target="fZSX2Tx-VuzL_oRfiSZg-109" edge="1">
          <mxGeometry relative="1" as="geometry">
            <mxPoint x="1310" y="627" as="sourcePoint" />
            <mxPoint x="1430" y="947" as="targetPoint" />
          </mxGeometry>
        </mxCell>
        <mxCell id="akp7HB05Ez-BgF-G3p8F-98" style="rounded=0;orthogonalLoop=1;jettySize=auto;html=1;exitX=1;exitY=0.5;exitDx=0;exitDy=0;entryX=0;entryY=0.5;entryDx=0;entryDy=0;endArrow=none;startFill=0;" parent="1" source="akp7HB05Ez-BgF-G3p8F-45" target="fZSX2Tx-VuzL_oRfiSZg-110" edge="1">
          <mxGeometry relative="1" as="geometry">
            <mxPoint x="1310" y="707" as="sourcePoint" />
            <mxPoint x="1430" y="867" as="targetPoint" />
          </mxGeometry>
        </mxCell>
        <mxCell id="akp7HB05Ez-BgF-G3p8F-107" value="" style="endArrow=classic;html=1;rounded=0;entryX=0;entryY=0.5;entryDx=0;entryDy=0;entryPerimeter=0;dashed=1;" parent="1" target="akp7HB05Ez-BgF-G3p8F-18" edge="1">
          <mxGeometry width="50" height="50" relative="1" as="geometry">
            <mxPoint x="510" y="340" as="sourcePoint" />
            <mxPoint x="920" y="460" as="targetPoint" />
          </mxGeometry>
        </mxCell>
        <mxCell id="akp7HB05Ez-BgF-G3p8F-108" value="" style="endArrow=classic;html=1;rounded=0;entryX=0.5;entryY=1;entryDx=0;entryDy=0;entryPerimeter=0;dashed=1;" parent="1" target="akp7HB05Ez-BgF-G3p8F-18" edge="1">
          <mxGeometry width="50" height="50" relative="1" as="geometry">
            <mxPoint x="480" y="400" as="sourcePoint" />
            <mxPoint x="874" y="478" as="targetPoint" />
            <Array as="points">
              <mxPoint x="480" y="478" />
              <mxPoint x="790" y="478" />
            </Array>
          </mxGeometry>
        </mxCell>
        <mxCell id="akp7HB05Ez-BgF-G3p8F-109" value="" style="endArrow=classic;html=1;rounded=0;entryX=0.5;entryY=0;entryDx=0;entryDy=0;entryPerimeter=0;dashed=1;" parent="1" target="akp7HB05Ez-BgF-G3p8F-18" edge="1">
          <mxGeometry width="50" height="50" relative="1" as="geometry">
            <mxPoint x="480" y="280" as="sourcePoint" />
            <mxPoint x="900" y="390" as="targetPoint" />
            <Array as="points">
              <mxPoint x="480" y="200" />
              <mxPoint x="790" y="200" />
            </Array>
          </mxGeometry>
        </mxCell>
        <mxCell id="akp7HB05Ez-BgF-G3p8F-111" value="" style="endArrow=classic;html=1;rounded=0;entryX=0.5;entryY=0;entryDx=0;entryDy=0;entryPerimeter=0;dashed=1;" parent="1" target="akp7HB05Ez-BgF-G3p8F-24" edge="1">
          <mxGeometry width="50" height="50" relative="1" as="geometry">
            <mxPoint x="480" y="760" as="sourcePoint" />
            <mxPoint x="870" y="829" as="targetPoint" />
            <Array as="points">
              <mxPoint x="480" y="640" />
              <mxPoint x="790" y="640" />
            </Array>
          </mxGeometry>
        </mxCell>
        <mxCell id="akp7HB05Ez-BgF-G3p8F-112" value="" style="endArrow=classic;html=1;rounded=0;entryX=0.5;entryY=1;entryDx=0;entryDy=0;entryPerimeter=0;dashed=1;" parent="1" target="akp7HB05Ez-BgF-G3p8F-24" edge="1">
          <mxGeometry width="50" height="50" relative="1" as="geometry">
            <mxPoint x="480" y="880" as="sourcePoint" />
            <mxPoint x="870" y="829" as="targetPoint" />
            <Array as="points">
              <mxPoint x="480" y="1000" />
              <mxPoint x="790" y="1000" />
            </Array>
          </mxGeometry>
        </mxCell>
        <mxCell id="akp7HB05Ez-BgF-G3p8F-113" value="" style="endArrow=classic;html=1;rounded=0;entryX=0.5;entryY=0;entryDx=0;entryDy=0;entryPerimeter=0;dashed=1;" parent="1" target="akp7HB05Ez-BgF-G3p8F-31" edge="1">
          <mxGeometry width="50" height="50" relative="1" as="geometry">
            <mxPoint x="480" y="1370" as="sourcePoint" />
            <mxPoint x="857" y="1296.5" as="targetPoint" />
            <Array as="points">
              <mxPoint x="480" y="1298" />
              <mxPoint x="797" y="1297.5" />
            </Array>
          </mxGeometry>
        </mxCell>
        <mxCell id="akp7HB05Ez-BgF-G3p8F-114" value="" style="endArrow=classic;html=1;rounded=0;entryX=0.5;entryY=1;entryDx=0;entryDy=0;entryPerimeter=0;dashed=1;" parent="1" target="akp7HB05Ez-BgF-G3p8F-31" edge="1">
          <mxGeometry width="50" height="50" relative="1" as="geometry">
            <mxPoint x="480" y="1500" as="sourcePoint" />
            <mxPoint x="907" y="1396.5" as="targetPoint" />
            <Array as="points">
              <mxPoint x="480" y="1578" />
              <mxPoint x="797" y="1577.5" />
            </Array>
          </mxGeometry>
        </mxCell>
        <mxCell id="akp7HB05Ez-BgF-G3p8F-115" value="" style="endArrow=classic;html=1;rounded=0;entryX=0;entryY=0.5;entryDx=0;entryDy=0;entryPerimeter=0;dashed=1;" parent="1" target="akp7HB05Ez-BgF-G3p8F-31" edge="1">
          <mxGeometry width="50" height="50" relative="1" as="geometry">
            <mxPoint x="520" y="1436" as="sourcePoint" />
            <mxPoint x="1157" y="1546.5" as="targetPoint" />
          </mxGeometry>
        </mxCell>
        <mxCell id="ndYoJXCKkMMeeV8GjZwx-4" value="" style="endArrow=classic;html=1;rounded=0;entryX=0;entryY=0.5;entryDx=0;entryDy=0;entryPerimeter=0;dashed=1;" parent="1" target="akp7HB05Ez-BgF-G3p8F-24" edge="1">
          <mxGeometry width="50" height="50" relative="1" as="geometry">
            <mxPoint x="510" y="819" as="sourcePoint" />
            <mxPoint x="760" y="819" as="targetPoint" />
          </mxGeometry>
        </mxCell>
        <mxCell id="-t-C2Uyr2PGwjeTO2Bi--1" value="" style="ellipse;whiteSpace=wrap;html=1;aspect=fixed;fillColor=#000000;" parent="1" vertex="1">
          <mxGeometry x="170" y="1160" width="20" height="20" as="geometry" />
        </mxCell>
        <mxCell id="-t-C2Uyr2PGwjeTO2Bi--2" value="" style="ellipse;whiteSpace=wrap;html=1;aspect=fixed;fillColor=#000000;" parent="1" vertex="1">
          <mxGeometry x="170" y="1080" width="20" height="20" as="geometry" />
        </mxCell>
        <mxCell id="-t-C2Uyr2PGwjeTO2Bi--6" value="" style="ellipse;whiteSpace=wrap;html=1;aspect=fixed;fillColor=#000000;" parent="1" vertex="1">
          <mxGeometry x="170" y="1240" width="20" height="20" as="geometry" />
        </mxCell>
        <mxCell id="-t-C2Uyr2PGwjeTO2Bi--7" value="" style="ellipse;whiteSpace=wrap;html=1;aspect=fixed;fillColor=#000000;" parent="1" vertex="1">
          <mxGeometry x="370" y="1160" width="20" height="20" as="geometry" />
        </mxCell>
        <mxCell id="-t-C2Uyr2PGwjeTO2Bi--8" value="" style="ellipse;whiteSpace=wrap;html=1;aspect=fixed;fillColor=#000000;" parent="1" vertex="1">
          <mxGeometry x="370" y="1080" width="20" height="20" as="geometry" />
        </mxCell>
        <mxCell id="-t-C2Uyr2PGwjeTO2Bi--9" value="" style="ellipse;whiteSpace=wrap;html=1;aspect=fixed;fillColor=#000000;" parent="1" vertex="1">
          <mxGeometry x="370" y="1240" width="20" height="20" as="geometry" />
        </mxCell>
        <mxCell id="-t-C2Uyr2PGwjeTO2Bi--10" value="" style="ellipse;whiteSpace=wrap;html=1;aspect=fixed;fillColor=#000000;" parent="1" vertex="1">
          <mxGeometry x="570" y="1160" width="20" height="20" as="geometry" />
        </mxCell>
        <mxCell id="-t-C2Uyr2PGwjeTO2Bi--11" value="" style="ellipse;whiteSpace=wrap;html=1;aspect=fixed;fillColor=#000000;" parent="1" vertex="1">
          <mxGeometry x="570" y="1080" width="20" height="20" as="geometry" />
        </mxCell>
        <mxCell id="-t-C2Uyr2PGwjeTO2Bi--12" value="" style="ellipse;whiteSpace=wrap;html=1;aspect=fixed;fillColor=#000000;" parent="1" vertex="1">
          <mxGeometry x="570" y="1240" width="20" height="20" as="geometry" />
        </mxCell>
        <mxCell id="-t-C2Uyr2PGwjeTO2Bi--14" value="" style="ellipse;whiteSpace=wrap;html=1;aspect=fixed;fillColor=#000000;" parent="1" vertex="1">
          <mxGeometry x="1050" y="930" width="20" height="20" as="geometry" />
        </mxCell>
        <mxCell id="-t-C2Uyr2PGwjeTO2Bi--16" value="" style="ellipse;whiteSpace=wrap;html=1;aspect=fixed;fillColor=#000000;" parent="1" vertex="1">
          <mxGeometry x="1050" y="990" width="20" height="20" as="geometry" />
        </mxCell>
        <mxCell id="-t-C2Uyr2PGwjeTO2Bi--17" value="" style="ellipse;whiteSpace=wrap;html=1;aspect=fixed;fillColor=#000000;" parent="1" vertex="1">
          <mxGeometry x="1050" y="1050" width="20" height="20" as="geometry" />
        </mxCell>
        <mxCell id="v-7nQs_0DuLFS-Alr0XC-2" value="" style="endArrow=classic;html=1;rounded=0;dashed=1;exitX=1;exitY=0.5;exitDx=0;exitDy=0;exitPerimeter=0;entryX=0;entryY=0.5;entryDx=0;entryDy=0;" edge="1" parent="1" source="akp7HB05Ez-BgF-G3p8F-18" target="v-7nQs_0DuLFS-Alr0XC-5">
          <mxGeometry width="50" height="50" relative="1" as="geometry">
            <mxPoint x="1060" y="377.78" as="sourcePoint" />
            <mxPoint x="1300" y="490" as="targetPoint" />
            <Array as="points">
              <mxPoint x="1280" y="340" />
            </Array>
          </mxGeometry>
        </mxCell>
        <mxCell id="v-7nQs_0DuLFS-Alr0XC-3" value="" style="endArrow=classic;html=1;rounded=0;dashed=1;exitX=1;exitY=0.5;exitDx=0;exitDy=0;exitPerimeter=0;entryX=0;entryY=0.5;entryDx=0;entryDy=0;" edge="1" parent="1" source="akp7HB05Ez-BgF-G3p8F-24" target="v-7nQs_0DuLFS-Alr0XC-5">
          <mxGeometry width="50" height="50" relative="1" as="geometry">
            <mxPoint x="830" y="350" as="sourcePoint" />
            <mxPoint x="960" y="340" as="targetPoint" />
            <Array as="points">
              <mxPoint x="960" y="820" />
              <mxPoint x="960" y="400" />
              <mxPoint x="1280" y="400" />
            </Array>
          </mxGeometry>
        </mxCell>
        <mxCell id="v-7nQs_0DuLFS-Alr0XC-4" value="" style="endArrow=classic;html=1;rounded=0;dashed=1;exitX=1;exitY=0.5;exitDx=0;exitDy=0;exitPerimeter=0;entryX=1;entryY=0.5;entryDx=0;entryDy=0;" edge="1" parent="1" source="akp7HB05Ez-BgF-G3p8F-31" target="v-7nQs_0DuLFS-Alr0XC-5">
          <mxGeometry width="50" height="50" relative="1" as="geometry">
            <mxPoint x="850" y="1368" as="sourcePoint" />
            <mxPoint x="1310" y="1200" as="targetPoint" />
            <Array as="points">
              <mxPoint x="1280" y="1440" />
            </Array>
          </mxGeometry>
        </mxCell>
        <mxCell id="v-7nQs_0DuLFS-Alr0XC-7" style="edgeStyle=none;curved=1;rounded=0;orthogonalLoop=1;jettySize=auto;html=1;exitX=0.75;exitY=0;exitDx=0;exitDy=0;fontSize=12;startSize=8;endSize=8;" edge="1" parent="1" source="v-7nQs_0DuLFS-Alr0XC-5" target="v-7nQs_0DuLFS-Alr0XC-5">
          <mxGeometry relative="1" as="geometry" />
        </mxCell>
        <mxCell id="v-7nQs_0DuLFS-Alr0XC-8" value="" style="endArrow=classic;html=1;rounded=0;dashed=1;" edge="1" parent="1">
          <mxGeometry width="50" height="50" relative="1" as="geometry">
            <mxPoint x="820" y="820" as="sourcePoint" />
            <mxPoint x="1280" y="980" as="targetPoint" />
            <Array as="points">
              <mxPoint x="960" y="820" />
              <mxPoint x="960" y="1360" />
              <mxPoint x="1280" y="1360" />
            </Array>
          </mxGeometry>
        </mxCell>
        <mxCell id="v-7nQs_0DuLFS-Alr0XC-9" value="&lt;font style=&quot;font-size: 25px;&quot;&gt;Weight Aggregation&lt;/font&gt;" style="text;html=1;align=center;verticalAlign=middle;whiteSpace=wrap;rounded=0;" vertex="1" parent="1">
          <mxGeometry x="1290" y="647" width="190" height="30" as="geometry" />
        </mxCell>
      </root>
    </mxGraphModel>
  </diagram>
</mxfile>
